<?xml version="1.0" encoding="utf-8"?>
<!-- Generator: Adobe Illustrator 21.0.0, SVG Export Plug-In . SVG Version: 6.00 Build 0)  -->
<svg version="1.1" id="Capa_1" xmlns="http://www.w3.org/2000/svg" xmlns:xlink="http://www.w3.org/1999/xlink" x="0px" y="0px"
	 viewBox="0 0 403 174" style="enable-background:new 0 0 403 174;" xml:space="preserve">
<style type="text/css">
	.st0{fill:#000000;}
</style>
<g>
	<g>
		<path class="st0" d="M372.1,148.4v18h23.6v-18H372.1z M6.6,166.4h355v-18H6.6V166.4z M35.3,122c9,0,16.1-2.4,21.3-7.1
			c5.2-4.8,7.9-11.8,7.9-21c0-1.7-0.1-3.3-0.2-4.7c-0.1-1.4-0.5-3.2-1.1-5.4c-0.6-2.2-1.5-4.3-2.5-6.2c-1.1-1.9-2.6-4-4.7-6.4
			c-2.1-2.3-4.5-4.5-7.4-6.7L34.3,54.2c-2.8-2-4.1-4.8-4.1-8.2c0-1.6,0.4-2.9,1.3-3.8c0.8-0.9,2.1-1.4,3.7-1.4
			c0.9,0,1.8,0.3,2.5,0.8c0.7,0.6,1.2,1.3,1.6,2.2c0.3,0.9,0.6,1.8,0.7,2.7c0.1,0.9,0.2,1.7,0.2,2.6l0.1,3.7h23.8V51
			c0-9.6-2.4-16.7-7.3-21.3s-11.8-6.9-20.9-6.9c-5,0-9.6,0.8-13.8,2.5c-4.2,1.7-7.8,4.3-10.6,7.9C8.4,36.9,7,41.2,7,46.1
			c0,2.8,0.1,5,0.3,6.8c0.2,1.7,0.7,3.7,1.5,5.9c0.8,2.2,2,4.2,3.6,6.2c1.7,2,3.8,4,6.5,6l12.4,9.5c1.8,1.4,3.3,2.7,4.5,3.9
			c1.2,1.3,2.1,2.3,2.7,3.2c0.6,0.9,1.1,1.9,1.4,3c0.3,1.1,0.4,2,0.5,2.6c0,0.6,0.1,1.5,0.1,2.8c0,5-1.6,7.6-4.7,7.6
			c-0.7,0-1.3-0.1-1.8-0.2c-0.5-0.1-1.1-0.4-1.8-0.8c-0.6-0.4-1.2-1.2-1.5-2.2c-0.4-1-0.5-2.3-0.5-3.8l-0.1-11.4H6.8l-0.1,7.7
			C6.6,112.3,16.2,122,35.3,122z M109.3,120.9l5.8-59.5l6,59.5h26.3l14-96.9h-23.1l-5.9,59.2L126.9,24h-23.3L98,83.2L92.2,24H69.1
			l14,96.9H109.3z M168.3,102.3c0.5,2.3,1.2,4.4,2,6.2c0.8,1.8,1.9,3.6,3.3,5.3c1.4,1.7,3.1,3.2,5,4.3c1.9,1.1,4.3,2.1,7.1,2.8
			c2.8,0.7,5.9,1.1,9.4,1.1c5.8,0,10.7-0.8,14.6-2.3c3.9-1.5,6.9-3.8,9-6.8c2.1-3,3.5-6.4,4.4-10.2c0.8-3.8,1.2-8.4,1.2-13.8v-5.5
			h-23c0.1,0.3,0.1,2.4,0.1,6.2c0,1.9,0,3.6-0.1,4.8c-0.1,1.3-0.3,2.8-0.6,4.4c-0.3,1.7-0.9,2.9-1.6,3.8c-0.8,0.9-1.8,1.3-3,1.3
			c-1.2,0-2.2-0.3-3-0.9c-0.8-0.6-1.4-1.4-1.7-2.6c-0.3-1.1-0.6-2.3-0.7-3.4c-0.1-1.1-0.2-2.4-0.2-4c0-0.5,0-1.3,0-2.2
			c0-1,0-1.7,0-2.1V75.4h33.6c0.2-3.3,0.3-9.3,0.3-18v-7c0-18.3-9.3-27.5-27.9-27.5c-9.2,0-16.3,2.4-21.4,7.1
			c-5.1,4.7-7.7,11.5-7.7,20.4v39c0,2.4,0.1,4.6,0.2,6.6C167.4,97.8,167.8,100,168.3,102.3z M190.3,47.8c0.1-1.3,0.4-2.6,0.8-3.8
			c0.4-1.2,1-2.2,1.8-2.8c0.8-0.6,1.8-0.9,3-0.9c3.5,0,5.2,3.5,5.2,10.5v10.1h-10.9c0-0.9,0-2.3-0.1-4.1c0-1.8-0.1-3.2-0.1-4.1
			C190.1,50.7,190.1,49.1,190.3,47.8z M234.5,102.3c0.5,2.3,1.2,4.4,2,6.2c0.8,1.8,1.9,3.6,3.3,5.3c1.4,1.7,3.1,3.2,5,4.3
			c1.9,1.1,4.3,2.1,7.1,2.8c2.8,0.7,5.9,1.1,9.4,1.1c5.8,0,10.7-0.8,14.6-2.3s6.9-3.8,9-6.8c2.1-3,3.5-6.4,4.4-10.2
			c0.8-3.8,1.2-8.4,1.2-13.8v-5.5h-23c0.1,0.3,0.1,2.4,0.1,6.2c0,1.9,0,3.6-0.1,4.8c-0.1,1.3-0.3,2.8-0.6,4.4
			c-0.3,1.7-0.9,2.9-1.6,3.8c-0.8,0.9-1.8,1.3-3,1.3c-1.2,0-2.2-0.3-3-0.9c-0.8-0.6-1.4-1.4-1.7-2.6c-0.3-1.1-0.6-2.3-0.7-3.4
			c-0.1-1.1-0.2-2.4-0.2-4c0-0.5,0-1.3,0-2.2c0-1,0-1.7,0-2.1V75.4h33.6c0.2-3.3,0.3-9.3,0.3-18v-7c0-18.3-9.3-27.5-27.9-27.5
			c-9.2,0-16.3,2.4-21.4,7.1c-5.1,4.7-7.7,11.5-7.7,20.4v39c0,2.4,0.1,4.6,0.2,6.6C233.7,97.8,234,100,234.5,102.3z M256.5,47.8
			c0.1-1.3,0.4-2.6,0.8-3.8c0.4-1.2,1-2.2,1.8-2.8c0.8-0.6,1.8-0.9,3-0.9c3.5,0,5.2,3.5,5.2,10.5v10.1h-10.9c0-0.9,0-2.3-0.1-4.1
			c0-1.8-0.1-3.2-0.1-4.1C256.3,50.7,256.4,49.1,256.5,47.8z M302.1,105.9c0,1.7,0.1,3.3,0.2,4.6c0.2,1.3,0.5,2.8,1.1,4.3
			c0.6,1.5,1.4,2.8,2.4,3.7c1,1,2.4,1.8,4.2,2.5c1.8,0.7,3.9,1,6.4,1c5,0,9.1-0.6,12.4-1.7v-15.8c-0.6,0.2-1.1,0.3-1.7,0.3
			c-0.6,0-1-0.1-1.4-0.4c-0.4-0.2-0.6-0.6-0.7-1.2c-0.1-0.5-0.2-1-0.3-1.5c0-0.5-0.1-1.1-0.1-1.9V45.3h4.1V27.7h-4.1V7.1h-22.5v20.6
			h-3.6v17.6h3.6V105.9z M372.1,140.7h23.6V24h-23.6v5.2c-3.5-4.3-8.1-6.4-13.9-6.4c-3.1,0-5.8,0.5-8.2,1.5c-2.4,1-4.3,2.3-5.8,4
			c-1.5,1.7-2.7,3.8-3.6,6.3c-0.9,2.5-1.6,5.1-1.9,7.8c-0.4,2.7-0.6,5.7-0.6,9v38.3c0,3,0,5.3,0.1,6.9c0,1.6,0.2,3.7,0.5,6.4
			c0.3,2.7,0.6,4.8,1.1,6.2c0.5,1.5,1.2,3.1,2.2,5c1,1.9,2.2,3.3,3.7,4.3c1.4,1,3.3,1.8,5.5,2.5c2.2,0.7,4.8,1,7.7,1
			c2.5,0,4.9-0.6,7.2-1.8c2.4-1.2,4.4-2.9,6-5.2V140.7z M370.9,101.4c-0.8,1.7-2.3,2.6-4.3,2.6c-1.8,0-3.1-0.9-3.9-2.6
			c-0.8-1.7-1.2-4.7-1.2-8.8V51.4c0-1,0-1.7,0-2.1c0-0.4,0.1-1.2,0.1-2.2c0.1-1,0.2-1.8,0.4-2.3c0.2-0.5,0.5-1.1,0.9-1.8
			c0.4-0.7,0.9-1.2,1.5-1.5c0.6-0.3,1.4-0.5,2.2-0.5c3.6,0,5.4,3.4,5.4,10.1v42.4C372.1,97.1,371.7,99.7,370.9,101.4z"/>
	</g>
</g>
</svg>
