<svg width="550" height="83" viewBox="0 0 550 83" fill="none" xmlns="http://www.w3.org/2000/svg">
<path d="M29.0788 76.456C12.3348 76.456 0.790799 67.096 0.790799 51.496H16.7028C16.7028 58.464 22.5268 61.896 28.9748 61.896C34.9028 61.896 40.7268 58.776 40.7268 53.368C40.7268 47.648 34.0708 46.088 26.1668 44.32C15.1428 41.616 1.8308 38.392 1.8308 22.688C1.8308 8.752 12.1268 0.847994 28.2468 0.847994C44.9908 0.847994 54.4548 9.792 54.4548 24.352H38.9588C38.9588 18.008 33.7588 15.096 27.8308 15.096C22.7348 15.096 17.6388 17.28 17.6388 22.064C17.6388 27.16 23.8788 28.72 31.6788 30.592C42.7028 33.4 56.6388 36.832 56.6388 53.16C56.6388 68.864 44.1588 76.456 29.0788 76.456ZM165.699 2.2H182.131L159.667 75H145.627L129.403 34.232L113.595 75H99.555L76.675 2.2H93.315L107.667 50.664L126.803 3.032H132.107L151.659 50.56L165.699 2.2ZM224.357 60.44H253.477V75H208.653V2.2H252.333V16.76H224.357V31.216H249.629V45.464H224.357V60.44ZM299.09 60.44H328.21V75H283.386V2.2H327.066V16.76H299.09V31.216H324.362V45.464H299.09V60.44ZM408.248 2.2V16.864H387.968V75H372.264V16.864H351.984V2.2H408.248ZM549.997 82.904H533.877L525.349 73.024C520.357 75.416 514.533 76.664 508.397 76.664C486.141 76.664 469.501 60.232 469.501 38.6C469.501 17.072 486.141 0.639997 508.397 0.639997C530.549 0.639997 547.085 16.968 547.085 38.6C547.085 49.728 542.717 59.4 535.541 66.264L549.997 82.904ZM508.397 61.792C510.685 61.792 512.869 61.48 514.845 60.856L500.389 44.112H516.509L525.349 54.408C528.989 50.352 531.069 44.84 531.069 38.6C531.069 25.392 521.397 15.512 508.397 15.512C495.397 15.512 485.517 25.496 485.517 38.6C485.517 51.704 495.397 61.792 508.397 61.792Z" fill="black"/>
</svg>
