<svg xmlns="http://www.w3.org/2000/svg" version="1.1" xmlns:xlink="http://www.w3.org/1999/xlink" width="1000" height="1000"><metadata><rdf:RDF xmlns:rdf="http://www.w3.org/1999/02/22-rdf-syntax-ns#" xmlns:dc="http://purl.org/dc/elements/1.1/"><rdf:Description><dc:creator>RealFaviconGenerator</dc:creator><dc:source>https://realfavicongenerator.net</dc:source></rdf:Description></rdf:RDF></metadata><style>
    #light-icon {
      display: inline;
    }
    #dark-icon {
      display: none;
    }

    @media (prefers-color-scheme: dark) {
      #light-icon {
        display: none;
      }
      #dark-icon {
        display: inline;
      }
    }
  </style><g id="light-icon"><svg xmlns="http://www.w3.org/2000/svg" version="1.1" xmlns:xlink="http://www.w3.org/1999/xlink" width="1000" height="1000"><g><g transform="matrix(0.5197505197505198,0,0,0.5197505197505198,0,373.44074844074845)"><svg xmlns="http://www.w3.org/2000/svg" width="1924" height="487" viewBox="0 0 1924 487" fill="none"><path d="M110.301 0C154.023 1.50234e-05 185.009 11.6532 203.257 34.96C221.685 58.2667 230.899 93.6785 230.899 141.195H133.879V108.403C133.879 101.899 131.982 96.84 128.188 93.2266C124.574 89.6132 119.606 87.8067 113.282 87.8066C105.694 87.8066 100.093 89.9746 96.4795 94.3105C93.0467 98.466 91.3301 103.886 91.3301 110.571C91.3301 117.256 93.1366 124.483 96.75 132.252C100.363 140.021 107.5 148.964 118.16 159.082L173.175 211.929C184.196 222.408 194.313 233.519 203.527 245.263C212.742 256.826 220.149 270.376 225.75 285.914C231.351 301.271 234.151 320.061 234.151 342.284C234.151 387.091 225.841 422.231 209.219 447.706C192.778 473 164.051 485.647 123.038 485.647C79.496 485.647 48.0585 474.808 28.7266 453.127C9.57534 431.446 4.38734e-05 396.938 0 349.602V302.987H94.3115V362.609C94.3115 373.63 95.9373 382.303 99.1895 388.627C102.622 394.77 108.494 397.841 116.805 397.841C125.477 397.841 131.439 395.312 134.691 390.253C138.124 385.194 139.841 376.882 139.841 365.319C139.841 350.685 138.396 338.49 135.505 328.733C132.614 318.796 127.555 309.402 120.328 300.549C113.282 291.515 103.435 281.036 90.7881 269.111L47.9688 228.46C15.9898 198.288 0 163.779 0 124.935C5.4803e-05 84.2834 9.39469 53.2978 28.1846 31.9785C47.1552 10.6592 74.5276 0 110.301 0Z" fill="black"></path><path d="M388.475 305.427L415.305 4.33594H504.195L529.671 305.427L555.146 4.33594H649.456L597.423 481.312H483.057L459.208 251.767L436.443 481.312H320.181L268.96 4.33594H362.188L388.475 305.427Z" fill="black"></path><path d="M885.354 96.4785H791.584V189.435H881.56V279.139H791.584V388.355H891.587V481.312H694.563V4.33594H885.354V96.4785Z" fill="black"></path><path d="M1130.74 96.4785H1036.97V189.435H1126.94V279.139H1036.97V388.355H1136.97V481.312H939.945V4.33594H1130.74V96.4785Z" fill="black"></path><path d="M1378.29 95.9365H1321.65V481.312H1226.25V95.9365H1169.61V4.33594H1378.29V95.9365Z" fill="black"></path><path fill-rule="evenodd" clip-rule="evenodd" d="M1653.17 2.73828C1680.11 2.73828 1705.44 7.00487 1729.17 15.5381C1752.91 23.8048 1774.64 35.0053 1794.38 49.1387C1817.04 65.9386 1835.44 84.7382 1849.58 105.538C1863.71 126.071 1874.24 146.472 1881.17 166.738C1885.17 178.738 1888.24 191.005 1890.38 203.538C1892.51 216.071 1893.58 228.872 1893.58 241.938C1893.58 268.072 1889.44 293.538 1881.17 318.338C1873.17 343.138 1861.84 365.805 1847.17 386.338C1844.27 390.277 1841.26 394.119 1838.15 397.867L1923.13 482.846H1802.92L1773.32 453.251C1759.13 461.694 1744.28 468.592 1728.78 473.938C1704.51 482.472 1679.31 486.738 1653.17 486.738C1626.51 486.738 1601.17 482.472 1577.17 473.938C1553.17 465.405 1531.31 453.805 1511.58 439.139C1491.58 424.205 1474.11 406.738 1459.17 386.738C1444.51 366.738 1433.04 344.072 1424.78 318.738C1420.78 306.738 1417.71 294.338 1415.58 281.538C1413.44 268.472 1412.38 255.272 1412.38 241.938C1412.38 215.539 1416.51 190.605 1424.78 167.139C1433.04 143.405 1444.64 121.405 1459.58 101.139C1474.24 81.1387 1491.71 63.8054 1511.98 49.1387C1532.51 34.472 1554.51 23.1387 1577.98 15.1387C1589.71 11.1387 1601.84 8.0718 1614.38 5.93848C1627.17 3.80516 1640.11 2.73831 1653.17 2.73828ZM1653.58 94.7383C1640.78 94.7383 1626.91 96.8721 1611.98 101.139C1597.04 105.139 1582.11 112.605 1567.17 123.538C1554.91 132.605 1544.11 143.272 1534.78 155.538C1525.71 167.805 1518.78 181.272 1513.98 195.938C1511.58 203.405 1509.71 211.139 1508.38 219.139C1507.04 226.872 1506.38 234.738 1506.38 242.738C1506.38 259.005 1508.91 275.005 1513.98 290.738C1519.04 306.471 1525.98 320.338 1534.78 332.338C1544.38 345.671 1555.31 357.005 1567.58 366.338C1579.84 375.404 1593.04 382.205 1607.17 386.738C1622.11 392.072 1637.58 394.738 1653.58 394.738C1669.58 394.738 1684.91 392.205 1699.58 387.139C1701.43 386.463 1703.27 385.754 1705.09 385.014L1648.49 328.415L1708.59 268.311L1771.93 331.653C1780.63 319.148 1787.31 305.51 1791.98 290.738C1794.38 283.272 1796.24 275.538 1797.58 267.538C1798.91 259.538 1799.58 251.272 1799.58 242.738C1799.58 227.005 1797.04 211.672 1791.98 196.738C1786.91 181.538 1779.97 167.938 1771.17 155.938C1752.51 130.605 1728.51 112.738 1699.17 102.338C1684.51 97.2713 1669.31 94.7383 1653.58 94.7383Z" fill="black"></path></svg></g></g></svg></g><g id="dark-icon"><svg xmlns="http://www.w3.org/2000/svg" version="1.1" xmlns:xlink="http://www.w3.org/1999/xlink" width="1000" height="1000"><g><g transform="matrix(0.5197505197505198,0,0,0.5197505197505198,0,373.44074844074845)"><svg xmlns="http://www.w3.org/2000/svg" width="1924" height="487" viewBox="0 0 1924 487" fill="none"><path d="M110.301 0C154.023 1.50234e-05 185.009 11.6532 203.257 34.96C221.685 58.2667 230.899 93.6785 230.899 141.195H133.879V108.403C133.879 101.899 131.982 96.84 128.188 93.2266C124.574 89.6132 119.606 87.8067 113.282 87.8066C105.694 87.8066 100.093 89.9746 96.4795 94.3105C93.0467 98.466 91.3301 103.886 91.3301 110.571C91.3301 117.256 93.1366 124.483 96.75 132.252C100.363 140.021 107.5 148.964 118.16 159.082L173.175 211.929C184.196 222.408 194.313 233.519 203.527 245.263C212.742 256.826 220.149 270.376 225.75 285.914C231.351 301.271 234.151 320.061 234.151 342.284C234.151 387.091 225.841 422.231 209.219 447.706C192.778 473 164.051 485.647 123.038 485.647C79.496 485.647 48.0585 474.808 28.7266 453.127C9.57534 431.446 4.38734e-05 396.938 0 349.602V302.987H94.3115V362.609C94.3115 373.63 95.9373 382.303 99.1895 388.627C102.622 394.77 108.494 397.841 116.805 397.841C125.477 397.841 131.439 395.312 134.691 390.253C138.124 385.194 139.841 376.882 139.841 365.319C139.841 350.685 138.396 338.49 135.505 328.733C132.614 318.796 127.555 309.402 120.328 300.549C113.282 291.515 103.435 281.036 90.7881 269.111L47.9688 228.46C15.9898 198.288 0 163.779 0 124.935C5.4803e-05 84.2834 9.39469 53.2978 28.1846 31.9785C47.1552 10.6592 74.5276 0 110.301 0Z" fill="white"></path><path d="M388.475 305.427L415.305 4.33594H504.195L529.671 305.427L555.146 4.33594H649.456L597.423 481.312H483.057L459.208 251.767L436.443 481.312H320.181L268.96 4.33594H362.188L388.475 305.427Z" fill="white"></path><path d="M885.354 96.4785H791.584V189.435H881.56V279.139H791.584V388.355H891.587V481.312H694.563V4.33594H885.354V96.4785Z" fill="white"></path><path d="M1130.74 96.4785H1036.97V189.435H1126.94V279.139H1036.97V388.355H1136.97V481.312H939.945V4.33594H1130.74V96.4785Z" fill="white"></path><path d="M1378.29 95.9365H1321.65V481.312H1226.25V95.9365H1169.61V4.33594H1378.29V95.9365Z" fill="white"></path><path fill-rule="evenodd" clip-rule="evenodd" d="M1653.17 2.73828C1680.11 2.73828 1705.44 7.00487 1729.17 15.5381C1752.91 23.8048 1774.64 35.0053 1794.38 49.1387C1817.04 65.9386 1835.44 84.7382 1849.58 105.538C1863.71 126.071 1874.24 146.472 1881.17 166.738C1885.17 178.738 1888.24 191.005 1890.38 203.538C1892.51 216.071 1893.58 228.872 1893.58 241.938C1893.58 268.072 1889.44 293.538 1881.17 318.338C1873.17 343.138 1861.84 365.805 1847.17 386.338C1844.27 390.277 1841.26 394.119 1838.15 397.867L1923.13 482.846H1802.92L1773.32 453.251C1759.13 461.694 1744.28 468.592 1728.78 473.938C1704.51 482.472 1679.31 486.738 1653.17 486.738C1626.51 486.738 1601.17 482.472 1577.17 473.938C1553.17 465.405 1531.31 453.805 1511.58 439.139C1491.58 424.205 1474.11 406.738 1459.17 386.738C1444.51 366.738 1433.04 344.072 1424.78 318.738C1420.78 306.738 1417.71 294.338 1415.58 281.538C1413.44 268.472 1412.38 255.272 1412.38 241.938C1412.38 215.539 1416.51 190.605 1424.78 167.139C1433.04 143.405 1444.64 121.405 1459.58 101.139C1474.24 81.1387 1491.71 63.8054 1511.98 49.1387C1532.51 34.472 1554.51 23.1387 1577.98 15.1387C1589.71 11.1387 1601.84 8.0718 1614.38 5.93848C1627.17 3.80516 1640.11 2.73831 1653.17 2.73828ZM1653.58 94.7383C1640.78 94.7383 1626.91 96.8721 1611.98 101.139C1597.04 105.139 1582.11 112.605 1567.17 123.538C1554.91 132.605 1544.11 143.272 1534.78 155.538C1525.71 167.805 1518.78 181.272 1513.98 195.938C1511.58 203.405 1509.71 211.139 1508.38 219.139C1507.04 226.872 1506.38 234.738 1506.38 242.738C1506.38 259.005 1508.91 275.005 1513.98 290.738C1519.04 306.471 1525.98 320.338 1534.78 332.338C1544.38 345.671 1555.31 357.005 1567.58 366.338C1579.84 375.404 1593.04 382.205 1607.17 386.738C1622.11 392.072 1637.58 394.738 1653.58 394.738C1669.58 394.738 1684.91 392.205 1699.58 387.139C1701.43 386.463 1703.27 385.754 1705.09 385.014L1648.49 328.415L1708.59 268.311L1771.93 331.653C1780.63 319.148 1787.31 305.51 1791.98 290.738C1794.38 283.272 1796.24 275.538 1797.58 267.538C1798.91 259.538 1799.58 251.272 1799.58 242.738C1799.58 227.005 1797.04 211.672 1791.98 196.738C1786.91 181.538 1779.97 167.938 1771.17 155.938C1752.51 130.605 1728.51 112.738 1699.17 102.338C1684.51 97.2713 1669.31 94.7383 1653.58 94.7383Z" fill="white"></path></svg></g></g></svg></g></svg>