<svg xmlns="http://www.w3.org/2000/svg" width="40" height="40" viewBox="0 0 40 40" fill="none">
<rect width="40" height="40" rx="8" fill="#5825FE"/>
<path d="M19.9928 10C14.4651 10 10 14.4803 10 20C10 25.5317 14.4771 30 19.9928 30C25.5205 30 29.9857 25.5197 29.9857 20C29.9857 14.4803 25.5086 10 19.9928 10ZM24.5774 24.4325C24.3983 24.7312 24.0162 24.8148 23.7178 24.6356C21.3658 23.2019 18.4169 22.8793 14.9308 23.6679C14.5965 23.7395 14.2622 23.5364 14.1905 23.2019C14.1189 22.8674 14.3219 22.5329 14.6562 22.4612C18.4647 21.589 21.7359 21.9594 24.3625 23.5723C24.6609 23.7515 24.7565 24.1338 24.5774 24.4325ZM25.7951 21.7085C25.5683 22.0789 25.0907 22.1864 24.7206 21.9713C22.0344 20.3226 17.9394 19.8447 14.7636 20.8005C14.3458 20.92 13.916 20.693 13.7966 20.2867C13.6772 19.8686 13.904 19.4385 14.3219 19.319C17.9513 18.2198 22.4642 18.7455 25.5564 20.6452C25.9145 20.8602 26.022 21.3381 25.7951 21.7085ZM25.9026 18.865C22.6791 16.9534 17.3663 16.7742 14.2861 17.7061C13.7966 17.8614 13.2713 17.5747 13.116 17.0848C12.9608 16.595 13.2474 16.0693 13.7369 15.914C17.2708 14.8387 23.1447 15.0538 26.8458 17.2521C27.2875 17.5149 27.4308 18.0884 27.1681 18.5305C26.9293 18.9845 26.3443 19.1278 25.9026 18.865Z" fill="white"/>
</svg>