<svg xmlns="http://www.w3.org/2000/svg" width="40" height="40" viewBox="0 0 40 40" fill="none">
<rect width="40" height="40" rx="8" fill="#5825FE"/>
<path d="M28.6017 15.0077C27.4451 15.0077 26.378 14.629 25.5211 13.9901C24.5382 13.2578 23.8321 12.1834 23.5827 10.9452C23.521 10.6393 23.4877 10.3235 23.4846 10H20.1807V18.9231L20.1767 23.8108C20.1767 25.1175 19.3158 26.2254 18.1224 26.6151C17.7761 26.7282 17.402 26.7818 17.0125 26.7606C16.5154 26.7336 16.0495 26.5854 15.6446 26.3459C14.7829 25.8365 14.1986 24.9125 14.1828 23.8554C14.1579 22.2032 15.5092 20.8562 17.1796 20.8562C17.5093 20.8562 17.8259 20.9094 18.1224 21.006V18.5671V17.6904C17.8097 17.6446 17.4915 17.6207 17.1697 17.6207C15.3414 17.6207 13.6314 18.3719 12.4091 19.7252C11.4853 20.7478 10.9312 22.0526 10.8457 23.4207C10.7336 25.218 11.399 26.9265 12.6894 28.187C12.879 28.3721 13.0781 28.5438 13.2863 28.7023C14.3926 29.5438 15.7451 30 17.1697 30C17.4915 30 17.8097 29.9765 18.1224 29.9308C19.4531 29.7359 20.681 29.1338 21.6499 28.187C22.8406 27.0239 23.4984 25.4797 23.5055 23.8362L23.4885 16.5374C24.0565 16.9705 24.6776 17.3289 25.3441 17.607C26.3808 18.0394 27.48 18.2584 28.6112 18.2581V15.8868V15.0069C28.612 15.0077 28.6025 15.0077 28.6017 15.0077Z" fill="white"/>
</svg>