<?xml version="1.0" standalone="no"?>
<!DOCTYPE svg PUBLIC "-//W3C//DTD SVG 1.1//EN" "http://www.w3.org/Graphics/SVG/1.1/DTD/svg11.dtd" >
<svg xmlns="http://www.w3.org/2000/svg" xmlns:xlink="http://www.w3.org/1999/xlink" version="1.1">
<metadata></metadata>
<defs>
<font id="montextralight" horiz-adv-x="1392" >
<font-face units-per-em="2048" ascent="1638" descent="-410" />
<missing-glyph horiz-adv-x="575" />
<glyph horiz-adv-x="0" />
<glyph unicode="&#xd;" horiz-adv-x="681" />
<glyph unicode=" "  horiz-adv-x="575" />
<glyph unicode="&#x09;" horiz-adv-x="575" />
<glyph unicode="&#xa0;" horiz-adv-x="575" />
<glyph unicode="!" horiz-adv-x="505" d="M205 0v127h98v-127h-98zM221 348v1127h66v-1127h-66z" />
<glyph unicode="&#x22;" horiz-adv-x="606" d="M156 973v465h63v-465h-63zM387 973v465h64v-465h-64z" />
<glyph unicode="#" horiz-adv-x="1292" d="M80 479v58h211l65 405h-229v57h238l69 435h62l-68 -435h516l68 435h61l-65 -435h204v-57h-213l-61 -405h229v-58h-237l-72 -479h-63l69 479h-520l-76 -479h-61l74 479h-201zM354 537h520l60 405h-516z" />
<glyph unicode="$" horiz-adv-x="1110" d="M84 412h68q0 -166 113.5 -265.5t303.5 -99.5q111 0 200 41t138 114.5t49 168.5q0 41 -8 73.5t-25.5 59t-37 47t-52 38t-58 29t-68.5 22.5t-71 18.5t-77 17.5q-53 10 -80.5 17t-78 20.5t-77 26t-65.5 33t-60.5 44t-43 54t-30.5 71.5t-9 88q0 160 111.5 258t301.5 107v176 h60v-176q182 -8 290.5 -114.5t108.5 -283.5h-65q0 102 -45.5 178t-128 116t-191.5 40q-170 0 -273.5 -82t-103.5 -217q0 -43 11.5 -78.5t28 -60.5t50 -47.5t59 -34.5t74 -27.5t77 -21.5t83.5 -21q8 -2 12 -2q61 -14 95.5 -21t88.5 -24.5t84.5 -34t69.5 -45t59.5 -61.5 t36 -79t15.5 -101q0 -168 -118 -274.5t-310 -114.5v-187h-57v187q-209 8 -332 123.5t-123 304.5z" />
<glyph unicode="%" horiz-adv-x="1572" d="M68 1152q0 134 86 219t219 85q90 0 159.5 -38t108.5 -107.5t39 -157.5t-39 -157.5t-108.5 -108.5t-159.5 -39q-133 0 -219 85t-86 219zM127 1153q0 -109 68.5 -178.5t177.5 -69.5q72 0 129 31t89 88t32 129q0 109 -70 178.5t-179.5 69.5t-178 -69.5t-68.5 -178.5zM303 -8 l871 1444h71l-870 -1444h-72zM901 287q0 88 38 156.5t107.5 106.5t157.5 38q131 0 216 -84t85 -216t-85 -216t-217 -84t-217 84t-85 215zM958 287.5q0 -107.5 69 -176t176.5 -68.5t176 68.5t68.5 176t-68.5 176t-176 68.5t-176.5 -68.5t-69 -176z" />
<glyph unicode="&#x26;" horiz-adv-x="1232" d="M98 336q0 78 27 143.5t79 119.5t101 93t125 86q-109 137 -154 229.5t-45 172.5q0 125 91.5 199.5t236.5 74.5q92 0 165 -32.5t113 -92t40 -135.5q0 -49 -12.5 -94t-42 -86t-57.5 -71t-77 -66.5t-79.5 -56t-90.5 -56.5q143 -176 443 -490q84 139 83 328h60 q0 -217 -100 -373q98 -104 219 -229h-80q-96 102 -174 182q-162 -203 -451 -202q-188 0 -304 98t-116 258zM162 338q0 -133 99 -215t261 -82q258 0 404 184q-313 330 -459 508q-72 -45 -118 -81t-93 -84t-70.5 -105t-23.5 -125zM293 1180q0 -131 188 -371l2 2q55 35 86 53.5 t76 52t70.5 60.5t51.5 61.5t38 73.5t12 82q0 45 -19.5 83t-53 64.5t-82 42t-103.5 15.5q-119 0 -192.5 -60.5t-73.5 -158.5z" />
<glyph unicode="'" horiz-adv-x="376" d="M156 973v465h63v-465h-63z" />
<glyph unicode="(" horiz-adv-x="532" d="M115 694q0 524 286 940h74q-139 -197 -217 -438.5t-78 -501.5t78 -501.5t219 -436.5h-76q-287 412 -286 938z" />
<glyph unicode=")" horiz-adv-x="532" d="M55 -244q141 195 219 436.5t78 501.5t-77.5 502t-217.5 438h74q287 -416 287 -940q0 -526 -287 -938h-76z" />
<glyph unicode="*" horiz-adv-x="768" d="M102 1225l17 51l237 -78v250h56v-250l237 78l17 -51l-240 -78l154 -211l-43 -35l-154 213l-158 -213l-41 35l156 211z" />
<glyph unicode="+" horiz-adv-x="1046" d="M68 684v64h424v426h65v-426h422v-64h-422v-434h-65v434h-424z" />
<glyph unicode="," horiz-adv-x="399" d="M139 0v127h119v-119q0 -94 -27 -145t-88 -84v53q37 27 52.5 62.5t15.5 105.5h-72z" />
<glyph unicode="-" horiz-adv-x="946" d="M156 539v63h635v-63h-635z" />
<glyph unicode="." horiz-adv-x="378" d="M139 0v127h99v-127h-99z" />
<glyph unicode="/" horiz-adv-x="778" d="M66 -119l575 1678h68l-576 -1678h-67z" />
<glyph unicode="0" horiz-adv-x="1255" d="M125 682q0 324 135 512t367.5 188t367.5 -188t135 -512t-135 -513t-366 -189q-154 0 -267.5 85t-175 243.5t-61.5 373.5zM190 681q0 -298 118 -469t321 -171t320.5 172t117.5 469t-118 468t-320.5 171t-320.5 -171t-118 -469z" />
<glyph unicode="1" horiz-adv-x="632" d="M49 1303v59h365v-1362h-64v1303h-301z" />
<glyph unicode="2" horiz-adv-x="1036" d="M80 0v37q256 254 399.5 405.5t222 261t100 173t21.5 145.5q0 133 -87 216t-228 83q-145 0 -236.5 -84t-91.5 -217v-37h-63v37q0 162 109.5 263t281.5 101q168 0 273.5 -101t105.5 -261q0 -86 -20.5 -151.5t-94.5 -174t-207.5 -254t-369.5 -381.5h766v-61h-881z" />
<glyph unicode="3" horiz-adv-x="1054" d="M88 373h64q12 -147 113.5 -239.5t250.5 -92.5q160 0 264.5 105.5t104.5 263.5q0 76 -30 143.5t-82 116.5t-123.5 76.5t-153.5 27.5h-115v25l418 504h-658v61h758v-27l-420 -506h31q188 -2 313 -124.5t125 -298.5q0 -186 -124 -307t-308 -121q-176 0 -296 109.5 t-132 283.5z" />
<glyph unicode="4" horiz-adv-x="1069" d="M41 309v29l508 1032h67l-491 -1001h653v503h62v-503h172v-60h-172v-309h-62v309h-737z" />
<glyph unicode="5" horiz-adv-x="1048" d="M94 373h64q10 -147 111.5 -239.5t254.5 -92.5q156 0 260.5 104.5t104.5 262.5q0 102 -50.5 186t-139.5 132t-197 48h-320l-16 17l63 573h635v-61h-581l-52 -469h273q193 0 321.5 -123t128.5 -303q0 -184 -124.5 -306t-305.5 -122q-178 0 -299 110.5t-131 282.5z" />
<glyph unicode="6" horiz-adv-x="1101" d="M109 416q0 199 151 473l275 491h71q-225 -403 -276 -498.5t-78 -164.5q59 61 144 96t179 35q193 0 324 -123t131 -309q0 -190 -130 -313t-331 -123q-199 0 -329.5 123.5t-130.5 312.5zM172 416q0 -162 113.5 -268.5t283.5 -106.5t284 106.5t114 268.5t-114 268.5 t-284 106.5t-283.5 -106.5t-113.5 -268.5z" />
<glyph unicode="7" horiz-adv-x="976" d="M49 1303v61h875v-23l-549 -1341h-72l537 1303h-791z" />
<glyph unicode="8" horiz-adv-x="1148" d="M117 369q0 135 75.5 232t206.5 134q-102 37 -161.5 121t-59.5 195q0 147 109.5 239t287 92t287 -92t109.5 -239q0 -113 -59.5 -196t-161.5 -120q131 -35 206.5 -133t75.5 -233q0 -174 -127 -283t-330 -109q-205 0 -331.5 109t-126.5 283zM182 367q0 -96 49.5 -171 t138 -117t205.5 -42q176 0 284 91t108 239q0 156 -109.5 247t-283 91t-283 -91.5t-109.5 -246.5zM242 1051q0 -88 43 -154t118.5 -99.5t171.5 -33.5q145 0 238.5 78t93.5 209q0 123 -92 198.5t-241.5 75.5t-240.5 -75.5t-91 -198.5z" />
<glyph unicode="9" horiz-adv-x="1099" d="M70 946q0 190 130.5 314t329.5 124t330 -124.5t131 -313.5q0 -203 -151 -473l-275 -489h-69q20 37 57 104q100 180 138 249t78 141.5t53.5 101t27.5 65.5q-25 -25 -52.5 -45t-60 -36.5t-66.5 -27t-72 -16.5t-75 -6q-195 0 -324.5 124t-129.5 308zM135 946 q0 -162 112.5 -268.5t282.5 -106.5t283 106.5t113 268.5q0 106 -51.5 192.5t-141.5 134.5t-203 48q-170 0 -282.5 -106.5t-112.5 -268.5z" />
<glyph unicode=":" horiz-adv-x="409" d="M156 0v127h98v-127h-98zM156 799v129h98v-129h-98z" />
<glyph unicode=";" horiz-adv-x="450" d="M166 0v127h117v-119q0 -94 -26 -145t-87 -84v53q37 27 52.5 62.5t15.5 105.5h-72zM168 801v127h98v-127h-98z" />
<glyph unicode="&#x3c;" horiz-adv-x="1079" d="M59 688v21l881 548v-73l-780 -484l780 -475v-73z" />
<glyph unicode="=" horiz-adv-x="1296" d="M156 457v61h983v-61h-983zM156 907v62h983v-62h-983z" />
<glyph unicode="&#x3e;" horiz-adv-x="1079" d="M139 152v73l783 475l-783 484v73l881 -548v-21z" />
<glyph unicode="?" horiz-adv-x="1007" d="M61 1147q14 168 133 268.5t293 100.5q186 0 303 -110t117 -292q0 -74 -17.5 -135t-55 -112.5t-65.5 -80t-83 -73.5q-49 -45 -71.5 -67.5t-55.5 -64.5t-46 -87t-13 -101v-45h-66v45q0 63 15.5 115.5t51.5 99.5t60.5 72t75.5 70q35 31 53.5 47t47 45.5t44 55.5t31.5 59.5 t23.5 72.5t7.5 84q0 154 -98.5 247t-258.5 93q-150 0 -249 -84t-113 -223h-64zM418 0v127h98v-127h-98z" />
<glyph unicode="@" horiz-adv-x="2101" d="M106 541q0 403 257 651t677 248q281 0 495 -111.5t333 -314.5t119 -467q0 -131 -39 -232.5t-107.5 -157t-157.5 -55.5q-66 0 -119 30t-87.5 81t-42.5 119q-55 -121 -165 -191.5t-251 -70.5q-197 0 -329 134t-132 334.5t132 336t329 135.5q92 0 173 -32t140.5 -88 t95.5 -132l11 211h43v-576q0 -68 25.5 -122t72.5 -83.5t104 -29.5q111 0 178.5 107.5t67.5 281.5q0 375 -244.5 606t-642.5 231q-395 0 -637.5 -232t-242.5 -611t235.5 -610.5t620.5 -231.5q113 0 222.5 31.5t178.5 85.5v-62q-51 -35 -117.5 -59.5t-140.5 -37.5t-147 -13 q-406 0 -657 246.5t-251 650.5zM618 540q0 -175 115 -294t289 -119t288.5 116.5t114.5 296t-113.5 295t-289.5 115.5q-174 0 -289 -117.5t-115 -292.5z" />
<glyph unicode="A" d="M51 0l608 1434h58l624 -1434h-71l-180 416h-791l-176 -416h-72zM326 479h737l-373 856z" />
<glyph unicode="B" horiz-adv-x="1318" d="M221 0v1434h543q166 0 272.5 -99.5t106.5 -249.5q0 -111 -64 -201.5t-164 -127.5q78 -23 139.5 -76t95.5 -129t34 -162q0 -166 -117 -277.5t-301 -111.5h-545zM287 66h493q92 0 170 44t122 118.5t44 166.5q0 135 -95 230.5t-235 95.5h-499v-655zM287 786h501 q119 0 202 88.5t83 204.5q0 121 -86 205t-211 84h-489v-582z" />
<glyph unicode="C" horiz-adv-x="1593" d="M113 714.5q0 321.5 205.5 530.5t525.5 209q236 0 411 -121t248 -332h-69q-72 182 -226.5 285t-363.5 103q-289 0 -476.5 -189.5t-187.5 -484.5q0 -193 85 -346.5t236.5 -238.5t342.5 -85q215 0 373.5 108.5t228.5 303.5h70q-74 -223 -252 -350t-420 -127 q-319 0 -525 206.5t-206 528z" />
<glyph unicode="D" horiz-adv-x="1482" d="M221 0v1434h422q315 0 521 -202t206 -513t-206 -515t-521 -204h-422zM287 63h354q287 0 474.5 185.5t187.5 470.5q0 283 -187.5 467t-474.5 184h-354v-1307z" />
<glyph unicode="E" horiz-adv-x="1110" d="M221 0v1434h770v-66h-704v-588h651v-63h-651v-651h727v-66h-793z" />
<glyph unicode="F" horiz-adv-x="1046" d="M221 0v1434h762v-66h-696v-614h643v-64h-643v-690h-66z" />
<glyph unicode="G" horiz-adv-x="1638" d="M115 715q0 319 202.5 528t511.5 209q250 0 441.5 -142.5t238.5 -363.5h-69q-45 193 -216 315.5t-395 122.5q-281 0 -464 -189t-183 -480q0 -293 181.5 -480.5t465.5 -187.5q258 0 432.5 155.5t200.5 405.5h-700v64h772q-10 -305 -207 -497.5t-498 -192.5 q-313 0 -513.5 207.5t-200.5 525.5z" />
<glyph unicode="H" horiz-adv-x="1490" d="M221 0v1434h66v-654h917v654h68v-1434h-68v715h-917v-715h-66z" />
<glyph unicode="I" horiz-adv-x="507" d="M221 0v1434h66v-1434h-66z" />
<glyph unicode="J" horiz-adv-x="1204" d="M66 461v14h67v-12q0 -178 116 -298t286 -120q168 0 283.5 121t115.5 297v971h67v-973q0 -207 -134.5 -344t-331.5 -137t-333 137t-136 344z" />
<glyph unicode="K" horiz-adv-x="1236" d="M221 0v1434h66v-656h243l562 656h86l-588 -686l641 -748h-88l-613 713h-243v-713h-66z" />
<glyph unicode="L" horiz-adv-x="1032" d="M221 0v1434h66v-1371h700v-63h-766z" />
<glyph unicode="M" horiz-adv-x="1931" d="M104 0l254 1434h60l545 -1246l548 1246h62l250 -1434h-68l-229 1305l-549 -1239h-25l-546 1237l-234 -1303h-68z" />
<glyph unicode="N" horiz-adv-x="1525" d="M221 0v1434h60l958 -1311v1311h66v-1434h-58l-960 1315v-1315h-66z" />
<glyph unicode="O" horiz-adv-x="1705" d="M113 715q0 209 94 378t264 265t381 96q322 0 530.5 -210t208.5 -529q0 -317 -208.5 -526t-530.5 -209t-530.5 209.5t-208.5 525.5zM180 715q0 -188 86 -341t239.5 -241t346.5 -88q293 0 482.5 190.5t189.5 479.5q0 291 -189.5 482.5t-481.5 191.5t-482.5 -192.5 t-190.5 -481.5z" />
<glyph unicode="P" horiz-adv-x="1226" d="M221 0v1434h481q193 0 322 -123t129 -307q0 -186 -128 -309.5t-323 -123.5h-415v-571h-66zM287 637h413q166 0 275.5 104.5t109.5 262.5q0 156 -109.5 260t-275.5 104h-413v-731z" />
<glyph unicode="Q" horiz-adv-x="1705" d="M113 715q0 209 94 378t264 266t381 97q322 0 530.5 -211t208.5 -530q0 -123 -33.5 -233.5t-97 -201t-151.5 -155.5l301 -334h-82l-271 297q-176 -108 -401 -108h-4q-322 0 -530.5 209.5t-208.5 525.5zM180 715q0 -188 86 -341t239.5 -241t346.5 -88q201 0 358 94 l-391 432h84l361 -397q82 61 139 143t89 183.5t32 214.5q0 291 -189.5 482.5t-481.5 191.5t-482.5 -192.5t-190.5 -481.5z" />
<glyph unicode="R" horiz-adv-x="1296" d="M221 0v1434h520q188 0 311.5 -115t123.5 -293q0 -160 -104.5 -270.5t-270.5 -130.5l375 -625h-78l-371 623h-440v-623h-66zM287 686h450q164 0 267.5 96.5t103.5 245.5q0 147 -104.5 243.5t-266.5 96.5h-450v-682z" />
<glyph unicode="S" horiz-adv-x="1193" d="M106 422h70q0 -170 119 -271.5t315 -101.5q178 0 292 93.5t114 242.5q0 49 -13.5 88t-31 66.5t-54 52t-63.5 39t-80 30t-82.5 22.5t-91.5 22q-63 14 -97 22t-90.5 25.5t-89 34t-72.5 45t-61.5 60.5t-36 78t-14.5 103q0 172 125 274.5t336 102.5q133 0 234.5 -49 t157 -139.5t55.5 -208.5h-68q0 150 -104.5 240.5t-276.5 90.5q-178 0 -285.5 -83.5t-107.5 -227.5q0 -39 8 -72.5t28.5 -60.5t39 -46.5t54.5 -36.5t60.5 -28.5t71.5 -24.5t72.5 -19.5t78.5 -16.5q66 -14 100 -22.5t91 -27t89 -35.5t73 -46t61.5 -62.5t35.5 -82t15 -105.5 q0 -182 -132 -292.5t-341 -110.5q-227 0 -365.5 119.5t-138.5 318.5z" />
<glyph unicode="T" horiz-adv-x="1091" d="M45 1370v64h1002v-64h-467v-1370h-68v1370h-467z" />
<glyph unicode="U" horiz-adv-x="1474" d="M201 528v906h67v-902q0 -213 132 -349t337 -136t337 136t132 349v902h68v-906q0 -238 -152 -392t-385 -154t-384.5 154.5t-151.5 391.5z" />
<glyph unicode="V" horiz-adv-x="1361" d="M53 1434h74l559 -1330l541 1330h73l-587 -1434h-58z" />
<glyph unicode="W" horiz-adv-x="2076" d="M61 1434h72l428 -1317l459 1263h35l467 -1263l417 1317h72l-459 -1434h-55l-459 1241l-450 -1241h-56z" />
<glyph unicode="X" horiz-adv-x="1185" d="M25 0l526 750l-481 684h77l447 -633l446 633h78l-483 -686l526 -748h-78l-489 696l-490 -696h-79z" />
<glyph unicode="Y" horiz-adv-x="1310" d="M74 1434h73l508 -803l512 803h74l-553 -867v-567h-67v565z" />
<glyph unicode="Z" horiz-adv-x="1101" d="M49 0v16l873 1354h-842v64h950v-17l-874 -1354h909v-63h-1016z" />
<glyph unicode="[" horiz-adv-x="663" d="M219 -242v1856h408v-58h-346v-1740h350v-58h-412z" />
<glyph unicode="\" horiz-adv-x="778" d="M70 1559h65l578 -1678h-70z" />
<glyph unicode="]" horiz-adv-x="663" d="M33 -184h350v1740h-346v58h407v-1856h-411v58z" />
<glyph unicode="^" horiz-adv-x="1040" d="M78 694l434 744h20l431 -744h-78l-365 641l-366 -641h-76z" />
<glyph unicode="_" horiz-adv-x="1056" d="M0 -121h1057v-63h-1057v63z" />
<glyph unicode="`" horiz-adv-x="1228" d="M209 1554h74l159 -311h-59z" />
<glyph unicode="a" horiz-adv-x="1437" d="M102 553q0 246 162 409.5t404 163.5q68 0 132 -13t119.5 -41t103.5 -65.5t85 -86t63 -103.5l9 289h57v-1106h-57l-9 289q-68 -143 -200.5 -227.5t-302.5 -84.5q-242 0 -404 165t-162 411zM170 553q0 -219 143.5 -364.5t356.5 -145.5q217 0 358 144.5t141 365.5 t-141 365.5t-358 144.5q-213 0 -356.5 -146.5t-143.5 -363.5z" />
<glyph unicode="b" horiz-adv-x="1435" d="M201 0v1497h65v-674q47 92 121 161t172 105.5t209 36.5q246 0 404.5 -162.5t158.5 -409.5t-158.5 -410.5t-404.5 -163.5q-166 0 -299 81.5t-203 223.5l-10 -285h-55zM264 553q0 -217 143.5 -363.5t358.5 -146.5t356.5 144.5t141.5 365.5t-141.5 365.5t-356.5 144.5 t-358.5 -145.5t-143.5 -364.5z" />
<glyph unicode="c" horiz-adv-x="1267" d="M102 553q0 248 163 410.5t407 162.5q119 0 223 -43t178 -120.5t113 -184.5h-68q-57 133 -176 209t-270 76q-215 0 -358.5 -145.5t-143.5 -364.5q0 -217 143.5 -363.5t358.5 -146.5q150 0 268.5 76t181.5 211h66q-61 -162 -199.5 -256t-316.5 -94q-242 0 -406 163.5 t-164 409.5z" />
<glyph unicode="d" horiz-adv-x="1433" d="M102 553q0 246 161 409.5t405 163.5q166 0 298 -79.5t201 -219.5v670h66v-1497h-55l-11 283q-68 -141 -199.5 -223.5t-299.5 -82.5q-244 0 -405 165t-161 411zM170 553q0 -217 143.5 -363.5t356.5 -146.5q217 0 358 144.5t141 365.5t-141 365.5t-358 144.5 q-213 0 -356.5 -145.5t-143.5 -364.5z" />
<glyph unicode="e" horiz-adv-x="1298" d="M104 555q0 244 159 407.5t395.5 163.5t390 -161.5t153.5 -403.5v-29h-1032q6 -211 145.5 -350t343.5 -139q143 0 257 71.5t182 200.5h69q-78 -164 -208 -249.5t-300 -85.5q-238 0 -396.5 164.5t-158.5 410.5zM170 594h969q-12 209 -147.5 340t-332.5 131 q-201 0 -338 -133t-151 -338z" />
<glyph unicode="f" horiz-adv-x="753" d="M29 1047v57h239v88q0 193 82 273.5t277 80.5h100v-55h-92q-170 0 -236.5 -66.5t-66.5 -234.5v-86h395v-57h-393v-1047h-66v1047h-239z" />
<glyph unicode="g" horiz-adv-x="1384" d="M104 584q0 152 71 276.5t195 195t273 70.5q160 0 288 -80.5t193 -218.5l11 279h49v-942q0 -178 -62.5 -308t-181.5 -199t-281 -69q-182 0 -309 88t-180 250h66q33 -88 94 -150.5t145 -94t184 -31.5q215 0 337 134t122 372v170q-66 -133 -191.5 -210t-283.5 -77 q-229 0 -384 156.5t-155 388.5zM170 584q0 -102 37 -191.5t100.5 -153t151.5 -100.5t188 -37q205 0 338 136.5t133 345.5q0 207 -134 344t-337 137t-340 -138.5t-137 -342.5z" />
<glyph unicode="h" horiz-adv-x="1312" d="M201 0v1497h65v-641q59 121 176 195.5t256 74.5q199 0 315.5 -127t116.5 -344v-655h-65v643q0 199 -100.5 310.5t-278.5 111.5q-111 0 -208 -57.5t-154.5 -154.5t-57.5 -210v-643h-65z" />
<glyph unicode="i" horiz-adv-x="468" d="M186 1352v114h97v-114h-97zM201 0v1106h65v-1106h-65z" />
<glyph unicode="j" horiz-adv-x="493" d="M-84 -330h39q84 0 145.5 33t93 93.5t31.5 144.5v1165h66v-1167q0 -152 -89 -241t-241 -89h-45v61zM211 1352v114h96v-114h-96z" />
<glyph unicode="k" horiz-adv-x="1044" d="M207 0v1497h65v-889h207l432 498h82l-458 -528l499 -578h-84l-471 547h-207v-547h-65z" />
<glyph unicode="l" horiz-adv-x="468" d="M201 0v1497h65v-1497h-65z" />
<glyph unicode="m" horiz-adv-x="1957" d="M201 0v1106h53l10 -225q35 76 91.5 131t132 84.5t163.5 29.5q131 0 224.5 -75.5t128.5 -206.5q31 88 89 151.5t138 97t174 33.5q166 0 268.5 -117.5t102.5 -310.5v-698h-64l-2 682q0 174 -86 278.5t-229 104.5q-109 0 -194 -52t-132 -147.5t-49 -218.5v-647h-64v682 q0 176 -86 279.5t-229 103.5q-166 0 -269.5 -115.5t-105.5 -302.5v-647h-65z" />
<glyph unicode="n" horiz-adv-x="1312" d="M201 0v1106h53l10 -256q57 125 175 200.5t259 75.5q199 0 315.5 -129t116.5 -344v-653h-65v643q0 199 -100.5 310.5t-278.5 111.5q-111 0 -208 -57.5t-154.5 -154.5t-57.5 -210v-643h-65z" />
<glyph unicode="o" horiz-adv-x="1357" d="M102 553q0 248 165 410.5t411 162.5q248 0 411.5 -163.5t163.5 -409.5t-163.5 -409.5t-411.5 -163.5q-246 0 -411 163.5t-165 409.5zM170 553q0 -219 145.5 -364.5t362.5 -145.5q145 0 261 65.5t182.5 183.5t66.5 261q0 219 -145.5 364.5t-364.5 145.5t-363.5 -144.5 t-144.5 -365.5z" />
<glyph unicode="p" horiz-adv-x="1435" d="M201 -391v1497h51l12 -289q70 141 204 225t302 84q244 0 402.5 -162.5t158.5 -409.5t-158.5 -410.5t-402.5 -163.5q-168 0 -301 82.5t-203 224.5v-678h-65zM264 553q0 -217 143.5 -363.5t358.5 -146.5q217 0 358.5 144.5t141.5 365.5t-141.5 365.5t-358.5 144.5 q-215 0 -358.5 -145.5t-143.5 -364.5z" />
<glyph unicode="q" horiz-adv-x="1433" d="M102 553q0 246 161 409.5t403 163.5q170 0 302 -81.5t201 -223.5l13 285h51v-1497h-66v674q-70 -139 -201.5 -222.5t-299.5 -83.5q-242 0 -403 165t-161 411zM168 553q0 -217 143.5 -363.5t358.5 -146.5q217 0 358 144.5t141 365.5t-141 365.5t-358 144.5 q-215 0 -358.5 -145.5t-143.5 -364.5z" />
<glyph unicode="r" horiz-adv-x="778" d="M201 0v1106h53l10 -250q35 78 90.5 134.5t133 88t167.5 31.5h97v-63h-101q-170 0 -277.5 -120t-107.5 -304v-623h-65z" />
<glyph unicode="s" horiz-adv-x="1036" d="M98 301h64q12 -123 106 -191.5t252 -68.5t254 68.5t96 183.5q0 47 -12 83t-42 61.5t-57.5 43t-76.5 30.5t-82 20.5t-92 17.5q-53 10 -82 15t-77 17.5t-74.5 24.5t-60.5 34t-51.5 47.5t-30.5 63t-13 83.5q0 131 108.5 211.5t284.5 80.5t281.5 -81.5t113.5 -225.5h-63 q-8 117 -96.5 182.5t-237.5 65.5q-147 0 -236.5 -63.5t-89.5 -167.5q0 -41 10.5 -73t38 -53.5t52 -37t73 -27.5t77 -17t89.5 -16q53 -10 84 -15t81 -18.5t79 -27.5t65.5 -39t56 -53.5t33 -70.5t13.5 -93q0 -143 -115 -229t-303 -86q-186 0 -296.5 85t-123.5 236z" />
<glyph unicode="t" horiz-adv-x="784" d="M23 1047v57h256v328h65v-328h401v-57h-401v-709q0 -131 70.5 -204t199.5 -73h140v-61h-146q-154 0 -241.5 89t-87.5 247v711h-256z" />
<glyph unicode="u" horiz-adv-x="1292" d="M180 463v643h66v-635q0 -199 107.5 -313.5t292.5 -114.5t293 114.5t108 313.5v635h65v-643q0 -221 -126 -352t-340 -131t-340 131t-126 352z" />
<glyph unicode="v" horiz-adv-x="1155" d="M49 1106h70l461 -1012l452 1012h68l-492 -1106h-55z" />
<glyph unicode="w" horiz-adv-x="1736" d="M59 1106h68l340 -991l383 954h29l385 -956l352 993h67l-391 -1106h-51l-377 942l-375 -942h-51z" />
<glyph unicode="x" horiz-adv-x="995" d="M25 0l434 580l-391 526h75l355 -479l358 479h74l-391 -524l432 -582h-76l-397 535l-398 -535h-75z" />
<glyph unicode="y" horiz-adv-x="1173" d="M49 1106h74l479 -971l451 971h69l-563 -1204q-53 -115 -107.5 -178.5t-117 -89t-154.5 -25.5h-86v61h82q117 0 185.5 50.5t138.5 199.5l67 141z" />
<glyph unicode="z" horiz-adv-x="933" d="M53 0v18l709 1026h-676v62h778v-19l-706 -1026h721v-61h-826z" />
<glyph unicode="{" horiz-adv-x="681" d="M68 662v57h14q59 0 101 41t42 102v520q0 94 63.5 158t157.5 64h201v-62h-184q-76 0 -125 -48t-49 -124v-506q0 -59 -32 -107t-83 -67q33 -12 59.5 -37.5t41 -61.5t14.5 -75v-516q0 -76 49 -124t125 -48h188v-61h-205q-94 0 -157.5 63.5t-63.5 159.5v530q0 57 -42 99.5 t-101 42.5h-14z" />
<glyph unicode="|" horiz-adv-x="503" d="M221 -389v2109h62v-2109h-62z" />
<glyph unicode="}" horiz-adv-x="681" d="M31 -174h188q76 0 125 49t49 125v516q0 59 33 106.5t82 67.5q-51 18 -83 66.5t-32 107.5v506q0 76 -49 124t-125 48h-182v60h199q94 0 158.5 -62.5t64.5 -157.5v-520q0 -61 41 -102t102 -41h12v-60h-12q-61 0 -102 -40.5t-41 -100.5v-528q0 -96 -63.5 -159.5 t-159.5 -63.5h-205v59z" />
<glyph unicode="~" horiz-adv-x="1159" d="M160 512v33q0 125 58 202.5t157 77.5q63 0 116.5 -31.5t122.5 -113.5q55 -68 94.5 -93.5t86.5 -25.5q72 0 115.5 59.5t43.5 159.5v29h52v-31q0 -125 -56.5 -199.5t-154.5 -74.5q-59 0 -108.5 29.5t-117.5 105.5q-66 74 -106.5 100.5t-87.5 26.5q-74 0 -119 -61.5 t-45 -161.5v-31h-51z" />
<glyph unicode="&#xa1;" horiz-adv-x="419" d="M160 979v127h100v-127h-100zM176 -369v1127h68v-1127h-68z" />
<glyph unicode="&#xa2;" horiz-adv-x="1220" d="M104 528q0 227 146.5 382t365.5 165v187h58v-187q164 -8 287.5 -98t179.5 -240h-66q-37 86 -101.5 148.5t-148.5 95.5t-180 33q-205 0 -341 -138.5t-136 -347.5q0 -207 137 -347t340 -140q143 0 257 72.5t173 201.5h64q-37 -98 -104.5 -171.5t-161 -115.5t-199.5 -48 v-183h-58v183q-217 10 -364.5 166.5t-147.5 381.5z" />
<glyph unicode="&#xa3;" horiz-adv-x="1193" d="M86 0v51l158 6v570h-146v57h146v299q0 119 53 214t146.5 148.5t205.5 53.5q170 0 285 -115t115 -285v-6h-60v4q0 143 -99 241.5t-241 98.5q-96 0 -174 -46t-123 -128t-45 -184v-295h453v-57h-453v-570h725v213h62v-270h-1008z" />
<glyph unicode="&#xa4;" horiz-adv-x="1208" d="M109 152l186 186q-100 115 -100 266q0 156 102 270l-186 187l39 41l188 -187q115 96 265.5 96.5t264.5 -98.5l187 189l41 -41l-187 -187q100 -117 101 -270q0 -152 -99 -266l187 -186l-39 -43l-189 188q-115 -100 -268 -100q-154 0 -268 102l-184 -188zM254 604 q0 -55 17.5 -108.5t50 -97.5t75.5 -75.5t96.5 -50t110.5 -18.5q143 0 245.5 103.5t102.5 248t-102 246.5t-246.5 102t-247 -102.5t-102.5 -247.5z" />
<glyph unicode="&#xa5;" horiz-adv-x="1265" d="M80 1362h72l481 -692l485 692h72l-526 -748v-57h446v-49h-446v-207h446v-47h-446v-254h-64v254h-446v47h446v207h-446v49h446v55z" />
<glyph unicode="&#xa6;" horiz-adv-x="503" d="M221 -389v921h62v-921h-62zM221 819v901h62v-901h-62z" />
<glyph unicode="&#xa7;" horiz-adv-x="1003" d="M104 694q0 96 55.5 166t157.5 107q-139 74 -139 227q0 123 87 192.5t222 69.5q164 0 261.5 -81t97.5 -212h-60q0 72 -36.5 126t-104 83t-158.5 29q-113 0 -182 -56.5t-69 -150.5q0 -47 17 -84t38.5 -59.5t66.5 -44t76 -30.5t90 -26q51 -14 77 -21t72 -23.5t71.5 -32 t58.5 -41t50 -54t29.5 -68.5t12.5 -87q0 -96 -55.5 -165t-149.5 -106q150 -76 150 -227q0 -125 -92.5 -193.5t-235.5 -68.5q-166 0 -262 81t-96 214h57q0 -111 82 -175.5t219 -64.5q123 0 195.5 55.5t72.5 149.5q0 47 -17.5 84t-41 58.5t-71.5 43t-79.5 31.5t-95.5 29 q-49 12 -76.5 19t-72.5 24.5t-71 32t-58.5 40t-50 54t-30 68.5t-12.5 87zM164 698q0 -41 10 -73.5t24.5 -56t43 -45t51 -34t64.5 -28t65.5 -22.5t71.5 -19q51 -14 127 -39q70 18 117.5 53t72.5 82t25 102q0 35 -6.5 65t-22.5 54.5t-30.5 43t-44.5 34.5t-49 26.5t-58 23 t-57.5 18.5t-63.5 18q-39 10 -115 37q-74 -18 -125 -54t-75.5 -83.5t-24.5 -102.5z" />
<glyph unicode="&#xa8;" horiz-adv-x="1228" d="M205 1352v114h98v-114h-98zM547 1352v114h100v-114h-100z" />
<glyph unicode="&#xa9;" horiz-adv-x="1740" d="M111 714.5q0 323.5 213 529.5t544 206q334 0 548 -207t214 -528.5t-214 -528t-548 -206.5q-332 0 -544.5 205.5t-212.5 529zM160 715q0 -303 198.5 -495.5t510 -192.5t512 193.5t200.5 494.5q0 199 -91 355.5t-254 244.5t-368 88q-311 0 -509.5 -192.5t-198.5 -495.5z M500 717q0 162 105.5 267.5t264.5 105.5q117 0 207 -61.5t129 -166.5h-51q-39 84 -114.5 131t-170.5 47q-90 0 -163.5 -42t-115.5 -115.5t-42 -165.5q0 -137 92 -229.5t229 -92.5q94 0 169 46t114 132h51q-39 -106 -129 -167.5t-205 -61.5q-158 0 -264 107.5t-106 265.5z " />
<glyph unicode="&#xaa;" horiz-adv-x="948" d="M106 1106q0 145 98.5 246.5t237.5 101.5q96 0 173 -47t120 -129l6 172h41v-692h-43l-4 174q-43 -82 -119.5 -130t-173.5 -48q-139 0 -237.5 102t-98.5 250zM156 1106q0 -129 84.5 -217t205.5 -88t204 88t83 217q0 127 -83 214t-204 87q-80 0 -146.5 -40t-105 -109.5 t-38.5 -151.5z" />
<glyph unicode="&#xab;" horiz-adv-x="1091" d="M100 537v20l363 410h78l-369 -420l369 -420h-78zM524 537v20l363 410h80l-369 -420l369 -420h-80z" />
<glyph unicode="&#xac;" horiz-adv-x="1175" d="M127 707v61h881v-514h-66v453h-815z" />
<glyph unicode="&#xad;" horiz-adv-x="946" d="M156 539v63h635v-63h-635z" />
<glyph unicode="&#xae;" horiz-adv-x="931" d="M109 1097.5q0 147.5 104 252t254 104.5q147 0 251.5 -104.5t104.5 -251.5q0 -150 -104.5 -254.5t-251.5 -104.5q-150 0 -254 105.5t-104 253zM145 1098q0 -133 94.5 -226.5t227.5 -93.5t225 93.5t92 226.5q0 131 -93 224t-224 93q-135 0 -228.5 -92t-93.5 -225zM352 909 v385h146q49 0 82.5 -31.5t33.5 -78.5q0 -43 -25.5 -72t-66.5 -37l101 -166h-41l-99 164h-92v-164h-39zM391 1110h105q37 0 59.5 20.5t22.5 53.5t-24 53t-58 20h-105v-147z" />
<glyph unicode="&#xaf;" horiz-adv-x="1038" d="M199 1384v56h641v-56h-641z" />
<glyph unicode="&#xb0;" horiz-adv-x="770" d="M94 1430q0 121 85 204.5t204 83.5q78 0 145.5 -38t107.5 -105.5t40 -144.5q0 -121 -87 -206t-206 -85t-204 85t-85 206zM145 1430q0 -100 70 -171t169 -71t170 70.5t71 170t-71 170t-171 70.5q-66 0 -120 -31.5t-86 -87t-32 -120.5z" />
<glyph unicode="&#xb1;" horiz-adv-x="1255" d="M137 68v61h983v-61h-983zM137 795v61h459v426h63v-426h459v-61h-459v-426h-63v426h-459z" />
<glyph unicode="&#xb4;" horiz-adv-x="692" d="M205 1243l160 311h71l-174 -311h-57z" />
<glyph unicode="&#xb6;" horiz-adv-x="1157" d="M66 1044q0 174 109.5 282t287.5 108h622v-62h-192v-1491h-62v1491h-327v-1491h-62v774q-170 6 -273 112.5t-103 276.5z" />
<glyph unicode="&#xb7;" horiz-adv-x="409" d="M156 559v129h98v-129h-98z" />
<glyph unicode="&#xb8;" horiz-adv-x="794" d="M215 -434h127q76 0 123 38t47 97q0 31 -13.5 55.5t-36 43t-54 27.5t-68.5 9h-31l-8 10l47 170l49 2l-41 -139q92 -4 150.5 -53t58.5 -125q0 -80 -61.5 -130t-155.5 -50h-133v45z" />
<glyph unicode="&#xba;" horiz-adv-x="929" d="M104 1104q0 150 103.5 250t257.5 100q102 0 184 -45t128 -126t46 -179q0 -150 -102 -250t-256 -100q-100 0 -183 45t-130.5 126t-47.5 179zM156 1104q0 -131 88 -217t222 -86t221 86t87 217t-87 217t-221 86t-222 -86t-88 -217z" />
<glyph unicode="&#xbb;" horiz-adv-x="1091" d="M127 127l369 420l-369 420h78l362 -410v-20l-362 -410h-78zM551 127l369 420l-369 420h80l360 -410v-20l-360 -410h-80z" />
<glyph unicode="&#xbc;" horiz-adv-x="1257" d="M43 1384v50h207v-750h-55v700h-152zM82 -61l829 1556h60l-830 -1556h-59zM662 164v24l276 562h57l-264 -535h326l8 264h47v-264h88v-51h-88v-164h-55v164h-395z" />
<glyph unicode="&#xbd;" horiz-adv-x="1294" d="M43 1384v50h207v-750h-55v700h-152zM82 -61l829 1556h60l-830 -1556h-59zM741 0v20q182 184 265.5 280.5t109 148t25.5 108.5q0 47 -20.5 82t-57.5 55.5t-86 20.5q-74 0 -121 -45t-47 -113v-20h-55v20q0 61 28.5 108.5t79.5 74t115 26.5q96 0 157.5 -58.5t61.5 -150.5 q0 -90 -65.5 -185.5t-282.5 -318.5h379v-53h-486z" />
<glyph unicode="&#xbe;" horiz-adv-x="1513" d="M70 891h55q8 -76 60.5 -123t129.5 -47q82 0 135.5 53t53.5 135q0 53 -26.5 97.5t-73 69t-103.5 24.5h-84v16l225 266h-342v52h430v-17l-229 -270h12q106 -2 176 -70t70 -168q0 -106 -70.5 -173.5t-173.5 -67.5q-68 0 -122 28.5t-85.5 78.5t-37.5 116zM340 -61l829 1556 h58l-830 -1556h-57zM920 164v24l274 562h57l-262 -535h326l8 264h45v-264h90v-51h-90v-164h-53v164h-395z" />
<glyph unicode="&#xbf;" horiz-adv-x="987" d="M84 -8q0 74 17.5 135t55.5 112.5t66.5 80t81.5 73.5q39 37 57.5 53.5t49 51t44 62.5t25 68t11.5 85v45h65v-45q0 -63 -15.5 -115.5t-51 -99.5t-60 -72t-76.5 -70q-51 -47 -77.5 -72.5t-62.5 -72.5t-51.5 -100.5t-15.5 -118.5q0 -102 45.5 -179t126 -119t187.5 -42 q150 0 249 84t111 223h64q-10 -111 -67.5 -194.5t-151 -129t-205.5 -45.5q-188 0 -305 110t-117 292zM475 979v127h100v-127h-100z" />
<glyph unicode="&#xc0;" d="M51 0l608 1434h58l624 -1434h-71l-180 416h-791l-176 -416h-72zM326 479h737l-373 856zM481 1892h72l178 -290h-59z" />
<glyph unicode="&#xc1;" d="M51 0l608 1434h58l624 -1434h-71l-180 416h-791l-176 -416h-72zM326 479h737l-373 856zM637 1602l178 290h72l-191 -290h-59z" />
<glyph unicode="&#xc2;" d="M51 0l608 1434h58l624 -1434h-71l-180 416h-791l-176 -416h-72zM326 479h737l-373 856zM401 1602l250 290h76l250 -290h-66l-223 249l-221 -249h-66z" />
<glyph unicode="&#xc3;" d="M51 0l608 1434h58l624 -1434h-71l-180 416h-791l-176 -416h-72zM326 479h737l-373 856zM342 1640v23q0 100 46 160.5t124 60.5q49 0 89 -24.5t91 -85.5q43 -53 75 -74t73 -21q55 0 86.5 45t31.5 125v19h50v-21q0 -98 -46 -159.5t-122 -61.5q-51 0 -91 25.5t-92 85.5 q-33 37 -55 56t-43.5 29.5t-46.5 10.5q-55 0 -89 -47t-34 -123v-23h-47z" />
<glyph unicode="&#xc4;" d="M51 0l608 1434h58l624 -1434h-71l-180 416h-791l-176 -416h-72zM326 479h737l-373 856zM432 1675v115h98v-115h-98zM848 1675v115h98v-115h-98z" />
<glyph unicode="&#xc5;" d="M51 0l608 1434h58l624 -1434h-71l-180 416h-791l-176 -416h-72zM326 477h737l-373 858zM473 1774.5q0 93.5 59.5 152t155.5 58.5t156.5 -58.5t60.5 -152t-60.5 -151.5t-156.5 -58t-155.5 58t-59.5 151.5zM522 1774.5q0 -72.5 46 -116.5t121 -44t120 44t45 116.5 t-45 116.5t-120 44t-121 -44t-46 -116.5z" />
<glyph unicode="&#xc6;" horiz-adv-x="1767" d="M-20 0l878 1434h793v-66h-707v-596h649v-63h-649v-643h729v-66h-796v371h-592l-228 -371h-77zM324 434h553v903z" />
<glyph unicode="&#xc7;" horiz-adv-x="1593" d="M113 715q0 322 205.5 530.5t525.5 208.5q236 0 411 -121t248 -332h-69q-72 182 -226.5 285t-363.5 103q-289 0 -476.5 -189.5t-187.5 -484.5q0 -193 85 -346.5t236.5 -238.5t342.5 -85q215 0 373.5 108.5t228.5 303.5h70q-29 -88 -76 -163t-108.5 -132.5t-136.5 -98 t-162 -62t-181 -21.5l-29 -101q90 -4 147.5 -54t57.5 -124q0 -39 -16.5 -73t-46 -57.5t-71.5 -36.5t-89 -13h-129v47h129q49 0 87 16.5t59.5 47t21.5 69.5q0 59 -48 97t-124 38h-29l-8 10l35 134q-303 16 -494.5 221t-191.5 514z" />
<glyph unicode="&#xc8;" horiz-adv-x="1110" d="M221 0v1434h770v-66h-704v-588h651v-63h-651v-651h727v-66h-793zM391 1892h72l178 -290h-59z" />
<glyph unicode="&#xc9;" horiz-adv-x="1110" d="M221 0v1434h770v-66h-704v-588h651v-63h-651v-651h727v-66h-793zM547 1602l178 290h72l-191 -290h-59z" />
<glyph unicode="&#xca;" horiz-adv-x="1110" d="M221 0v1434h770v-66h-704v-588h651v-63h-651v-651h727v-66h-793zM311 1602l250 290h76l250 -290h-66l-223 249l-221 -249h-66z" />
<glyph unicode="&#xcb;" horiz-adv-x="1110" d="M221 0v1434h770v-66h-704v-588h651v-63h-651v-651h727v-66h-793zM342 1675v115h98v-115h-98zM758 1675v115h98v-115h-98z" />
<glyph unicode="&#xcc;" horiz-adv-x="507" d="M82 1892h72l116 -290h-57zM221 0v1434h66v-1434h-66z" />
<glyph unicode="&#xcd;" horiz-adv-x="507" d="M197 1604l120 290h70l-133 -290h-57zM221 0v1434h66v-1434h-66z" />
<glyph unicode="&#xce;" horiz-adv-x="507" d="M4 1602l215 290h72l213 -290h-62l-188 247l-188 -247h-62zM221 0v1434h66v-1434h-66z" />
<glyph unicode="&#xcf;" horiz-adv-x="507" d="M61 1675v115h95v-115h-95zM221 0v1434h66v-1434h-66zM352 1675v115h94v-115h-94z" />
<glyph unicode="&#xd0;" horiz-adv-x="1507" d="M29 688v57h215v689h422q315 0 521 -202t206 -513t-206 -515t-521 -204h-422v688h-215zM311 63h353q287 0 474 185.5t187 470.5q0 283 -186.5 467t-474.5 184h-353v-625h516v-57h-516v-625z" />
<glyph unicode="&#xd1;" horiz-adv-x="1525" d="M221 0v1434h60l958 -1311v1311h66v-1434h-58l-960 1315v-1315h-66zM444 1640v23q0 100 46.5 160.5t123.5 60.5q49 0 89 -24.5t92 -85.5q43 -53 74.5 -74t72.5 -21q55 0 87 45t32 125v19h49v-21q0 -98 -46 -159.5t-122 -61.5q-51 0 -91 25.5t-91 85.5q-33 37 -55.5 56 t-44 29.5t-46.5 10.5q-55 0 -88.5 -47t-33.5 -123v-23h-48z" />
<glyph unicode="&#xd2;" horiz-adv-x="1705" d="M113 715q0 209 94 378t264 265t381 96q322 0 530.5 -210t208.5 -529q0 -317 -208.5 -526t-530.5 -209t-530.5 209.5t-208.5 525.5zM180 715q0 -188 86 -341t239.5 -241t346.5 -88q293 0 482.5 190.5t189.5 479.5q0 291 -189.5 482.5t-481.5 191.5t-482.5 -192.5 t-190.5 -481.5zM645 1892h72l176 -290h-57z" />
<glyph unicode="&#xd3;" horiz-adv-x="1705" d="M113 715q0 209 94 378t264 265t381 96q322 0 530.5 -210t208.5 -529q0 -317 -208.5 -526t-530.5 -209t-530.5 209.5t-208.5 525.5zM180 715q0 -188 86 -341t239.5 -241t346.5 -88q293 0 482.5 190.5t189.5 479.5q0 291 -189.5 482.5t-481.5 191.5t-482.5 -192.5 t-190.5 -481.5zM801 1602l178 290h70l-191 -290h-57z" />
<glyph unicode="&#xd4;" horiz-adv-x="1705" d="M113 715q0 209 94 378t264 265t381 96q322 0 530.5 -210t208.5 -529q0 -317 -208.5 -526t-530.5 -209t-530.5 209.5t-208.5 525.5zM180 715q0 -188 86 -341t239.5 -241t346.5 -88q293 0 482.5 190.5t189.5 479.5q0 291 -189.5 482.5t-481.5 191.5t-482.5 -192.5 t-190.5 -481.5zM565 1602l248 290h76l250 -290h-64l-223 249l-221 -249h-66z" />
<glyph unicode="&#xd5;" horiz-adv-x="1705" d="M113 715q0 209 94 378t264 265t381 96q322 0 530.5 -210t208.5 -529q0 -317 -208.5 -526t-530.5 -209t-530.5 209.5t-208.5 525.5zM180 715q0 -188 86 -341t239.5 -241t346.5 -88q293 0 482.5 190.5t189.5 479.5q0 291 -189.5 482.5t-481.5 191.5t-482.5 -192.5 t-190.5 -481.5zM506 1640v23q0 100 45 160.5t123 60.5q35 0 63.5 -11t56 -34.5t62.5 -64.5q43 -53 75 -74t70 -21q37 0 65 20.5t42 58.5t14 91v19h49v-21q0 -98 -46 -159.5t-124 -61.5q-49 0 -89 25.5t-93 85.5q-31 37 -53.5 56t-45 29.5t-46.5 10.5q-53 0 -87 -47t-34 -123 v-23h-47z" />
<glyph unicode="&#xd6;" horiz-adv-x="1705" d="M113 715q0 209 94 378t264 265t381 96q322 0 530.5 -210t208.5 -529q0 -317 -208.5 -526t-530.5 -209t-530.5 209.5t-208.5 525.5zM180 715q0 -188 86 -341t239.5 -241t346.5 -88q293 0 482.5 190.5t189.5 479.5q0 291 -189.5 482.5t-481.5 191.5t-482.5 -192.5 t-190.5 -481.5zM594 1675v115h100v-115h-100zM1012 1675v115h98v-115h-98z" />
<glyph unicode="&#xd7;" horiz-adv-x="1011" d="M125 369l338 342l-338 344l43 43l338 -342l338 342l43 -43l-338 -344l338 -342l-43 -45l-338 344l-338 -344z" />
<glyph unicode="&#xd8;" horiz-adv-x="1708" d="M113 717q0 313 211 523t526 210q205 0 369 -94l124 205h74l-141 -236q147 -96 233 -257t86 -355q0 -311 -208.5 -520t-524.5 -209q-186 0 -346 79l-115 -190h-73l133 219q-162 96 -255 260t-93 365zM180 717q0 -121 39 -230.5t109.5 -194.5t165.5 -142l692 1150 q-152 82 -336 82q-188 0 -342 -87t-241 -239.5t-87 -338.5zM551 121q145 -70 309 -70q287 0 477.5 188.5t190.5 473.5q0 176 -77 321.5t-210 235.5z" />
<glyph unicode="&#xd9;" horiz-adv-x="1474" d="M201 528v906h67v-902q0 -213 132 -349t337 -136t337 136t132 349v902h68v-906q0 -238 -152 -392t-385 -154t-384.5 154.5t-151.5 391.5zM528 1892h74l176 -290h-57z" />
<glyph unicode="&#xda;" horiz-adv-x="1474" d="M201 528v906h67v-902q0 -213 132 -349t337 -136t337 136t132 349v902h68v-906q0 -238 -152 -392t-385 -154t-384.5 154.5t-151.5 391.5zM684 1602l178 290h72l-191 -290h-59z" />
<glyph unicode="&#xdb;" horiz-adv-x="1474" d="M201 528v906h67v-902q0 -213 132 -349t337 -136t337 136t132 349v902h68v-906q0 -238 -152 -392t-385 -154t-384.5 154.5t-151.5 391.5zM451 1602l247 290h76l250 -290h-66l-223 249l-221 -249h-63z" />
<glyph unicode="&#xdc;" horiz-adv-x="1474" d="M201 528v906h67v-902q0 -213 132 -349t337 -136t337 136t132 349v902h68v-906q0 -238 -152 -392t-385 -154t-384.5 154.5t-151.5 391.5zM479 1675v115h99v-115h-99zM895 1675v115h100v-115h-100z" />
<glyph unicode="&#xdd;" horiz-adv-x="1310" d="M74 1434h73l508 -803l512 803h74l-553 -867v-567h-67v565zM606 1602l176 290h74l-192 -290h-58z" />
<glyph unicode="&#xde;" horiz-adv-x="1255" d="M221 0v1434h66v-285h415q195 0 323 -123t128 -309t-128 -309t-323 -123h-415v-285h-66zM287 348h413q166 0 275.5 104.5t109.5 264.5t-109.5 264t-275.5 104h-413v-737z" />
<glyph unicode="&#xdf;" horiz-adv-x="1228" d="M201 0v1004q0 252 117.5 388t332.5 136q178 0 296 -114t118 -286q0 -113 -54.5 -207t-138.5 -133q74 -23 131.5 -74.5t88 -127.5t30.5 -166q0 -190 -137 -305t-364 -115h-127v63h127q199 0 318.5 98.5t119.5 262.5q0 92 -40 168t-111.5 119t-159.5 43h-234v61h227 q70 0 130.5 42t96.5 113.5t36 155.5q0 145 -100.5 241.5t-252.5 96.5q-123 0 -209 -53t-131 -156.5t-45 -250.5v-1004h-65z" />
<glyph unicode="&#xe0;" horiz-adv-x="1437" d="M102 553q0 246 162 409.5t404 163.5q68 0 132 -13t119.5 -41t103.5 -65.5t85 -86t63 -103.5l9 289h57v-1106h-57l-9 289q-68 -143 -200.5 -227.5t-302.5 -84.5q-242 0 -404 165t-162 411zM170 553q0 -219 143.5 -364.5t356.5 -145.5q217 0 358 144.5t141 365.5 t-141 365.5t-358 144.5q-213 0 -356.5 -146.5t-143.5 -363.5zM494 1554h71l160 -311h-59z" />
<glyph unicode="&#xe1;" horiz-adv-x="1437" d="M102 553q0 246 162 409.5t404 163.5q68 0 132 -13t119.5 -41t103.5 -65.5t85 -86t63 -103.5l9 289h57v-1106h-57l-9 289q-68 -143 -200.5 -227.5t-302.5 -84.5q-242 0 -404 165t-162 411zM170 553q0 -219 143.5 -364.5t356.5 -145.5q217 0 358 144.5t141 365.5 t-141 365.5t-358 144.5q-213 0 -356.5 -146.5t-143.5 -363.5zM612 1243l160 311h72l-172 -311h-60z" />
<glyph unicode="&#xe2;" horiz-adv-x="1437" d="M102 553q0 246 162 409.5t404 163.5q68 0 132 -13t119.5 -41t103.5 -65.5t85 -86t63 -103.5l9 289h57v-1106h-57l-9 289q-68 -143 -200.5 -227.5t-302.5 -84.5q-242 0 -404 165t-162 411zM170 553q0 -219 143.5 -364.5t356.5 -145.5q217 0 358 144.5t141 365.5 t-141 365.5t-358 144.5q-213 0 -356.5 -146.5t-143.5 -363.5zM393 1243l248 311h78l250 -311h-66l-223 266l-221 -266h-66z" />
<glyph unicode="&#xe3;" horiz-adv-x="1437" d="M102 553q0 246 162 409.5t404 163.5q68 0 132 -13t119.5 -41t103.5 -65.5t85 -86t63 -103.5l9 289h57v-1106h-57l-9 289q-68 -143 -200.5 -227.5t-302.5 -84.5q-242 0 -404 165t-162 411zM170 553q0 -219 143.5 -364.5t356.5 -145.5q217 0 358 144.5t141 365.5 t-141 365.5t-358 144.5q-213 0 -356.5 -146.5t-143.5 -363.5zM338 1282v25q0 98 46 158.5t122 60.5q51 0 91 -25.5t91 -87.5q43 -51 74 -71.5t69 -20.5q55 0 88 46t33 124v18h47v-20q0 -98 -45 -158.5t-123 -60.5q-49 0 -87.5 24.5t-92.5 83.5q-45 53 -76.5 75t-68.5 22 q-53 0 -87 -47t-34 -121v-25h-47z" />
<glyph unicode="&#xe4;" horiz-adv-x="1437" d="M102 553q0 246 162 409.5t404 163.5q68 0 132 -13t119.5 -41t103.5 -65.5t85 -86t63 -103.5l9 289h57v-1106h-57l-9 289q-68 -143 -200.5 -227.5t-302.5 -84.5q-242 0 -404 165t-162 411zM170 553q0 -219 143.5 -364.5t356.5 -145.5q217 0 358 144.5t141 365.5 t-141 365.5t-358 144.5q-213 0 -356.5 -146.5t-143.5 -363.5zM459 1352v114h100v-114h-100zM803 1352v114h98v-114h-98z" />
<glyph unicode="&#xe5;" horiz-adv-x="1437" d="M102 553q0 246 162 409.5t404 163.5q68 0 132 -13t119.5 -41t103.5 -65.5t85 -86t63 -103.5l9 289h57v-1106h-57l-9 289q-68 -143 -200.5 -227.5t-302.5 -84.5q-242 0 -404 165t-162 411zM170 553q0 -219 143.5 -364.5t356.5 -145.5q217 0 358 144.5t141 365.5 t-141 365.5t-358 144.5q-213 0 -356.5 -146.5t-143.5 -363.5zM477 1414q0 87 56.5 142.5t147.5 55.5t147.5 -55.5t56.5 -142.5t-57.5 -142t-147.5 -55t-146.5 55t-56.5 142zM524 1414.5q0 -68.5 43 -110.5t113 -42t114 42t44 109q0 47 -19.5 82t-55.5 53.5t-83 18.5 q-70 0 -113 -42t-43 -110.5z" />
<glyph unicode="&#xe6;" horiz-adv-x="2359" d="M102 553q0 246 163 409.5t405 163.5q166 0 297 -80.5t200 -220.5l4 281h52l4 -295q68 145 198.5 230t294.5 85q233 0 388 -162.5t155 -402.5v-31h-1034q4 -102 43 -193t103.5 -155.5t153.5 -101.5t191 -37q143 0 257 70.5t182 199.5h69q-51 -109 -127 -183.5t-172 -113.5 t-209 -39q-164 0 -295 86.5t-198 229.5l-4 -295h-54l-2 283q-70 -139 -200.5 -220t-296.5 -81q-242 0 -405 163.5t-163 409.5zM170 553q0 -219 142.5 -364.5t357.5 -145.5q139 0 253.5 67.5t179 184.5t64.5 258q0 221 -141 365.5t-356 144.5t-357.5 -146.5t-142.5 -363.5z M1231 592h969q-8 207 -145.5 339t-334.5 132q-133 0 -241.5 -60.5t-174 -168t-73.5 -242.5z" />
<glyph unicode="&#xe7;" horiz-adv-x="1267" d="M102 553q0 248 163 410.5t407 162.5q119 0 223 -43t178 -120.5t113 -184.5h-68q-57 133 -176 209t-270 76q-215 0 -358.5 -145.5t-143.5 -364.5q0 -217 143.5 -363.5t358.5 -146.5q150 0 268.5 76t181.5 211h66q-59 -158 -192.5 -252t-307.5 -98l-29 -101 q92 -4 150.5 -53t58.5 -125q0 -80 -61.5 -130t-155.5 -50h-133v45h127q76 0 123 38t47 99q0 57 -48 96t-124 39h-31l-8 8l37 134q-231 10 -385 172.5t-154 400.5z" />
<glyph unicode="&#xe8;" horiz-adv-x="1298" d="M104 555q0 244 159 407.5t395.5 163.5t390 -161.5t153.5 -403.5v-29h-1032q6 -211 145.5 -350t343.5 -139q143 0 257 71.5t182 200.5h69q-78 -164 -208 -249.5t-300 -85.5q-238 0 -396.5 164.5t-158.5 410.5zM170 594h969q-12 209 -147.5 340t-332.5 131 q-201 0 -338 -133t-151 -338zM467 1554h70l159 -311h-57z" />
<glyph unicode="&#xe9;" horiz-adv-x="1298" d="M104 555q0 244 159 407.5t395.5 163.5t390 -161.5t153.5 -403.5v-29h-1032q6 -211 145.5 -350t343.5 -139q143 0 257 71.5t182 200.5h69q-78 -164 -208 -249.5t-300 -85.5q-238 0 -396.5 164.5t-158.5 410.5zM170 594h969q-12 209 -147.5 340t-332.5 131 q-201 0 -338 -133t-151 -338zM586 1243l159 311h72l-174 -311h-57z" />
<glyph unicode="&#xea;" horiz-adv-x="1298" d="M104 555q0 244 159 407.5t395.5 163.5t390 -161.5t153.5 -403.5v-29h-1032q6 -211 145.5 -350t343.5 -139q143 0 257 71.5t182 200.5h69q-78 -164 -208 -249.5t-300 -85.5q-238 0 -396.5 164.5t-158.5 410.5zM170 594h969q-12 209 -147.5 340t-332.5 131 q-201 0 -338 -133t-151 -338zM367 1243l247 311h78l250 -311h-65l-224 266l-223 -266h-63z" />
<glyph unicode="&#xeb;" horiz-adv-x="1298" d="M104 555q0 244 159 407.5t395.5 163.5t390 -161.5t153.5 -403.5v-29h-1032q6 -211 145.5 -350t343.5 -139q143 0 257 71.5t182 200.5h69q-78 -164 -208 -249.5t-300 -85.5q-238 0 -396.5 164.5t-158.5 410.5zM170 594h969q-12 209 -147.5 340t-332.5 131 q-201 0 -338 -133t-151 -338zM432 1352v114h100v-114h-100zM774 1352v114h100v-114h-100z" />
<glyph unicode="&#xec;" horiz-adv-x="468" d="M78 1554h69l119 -311h-59zM201 0v1106h65v-1106h-65z" />
<glyph unicode="&#xed;" horiz-adv-x="468" d="M199 1243l116 311h72l-129 -311h-59zM201 0v1106h65v-1106h-65z" />
<glyph unicode="&#xee;" horiz-adv-x="468" d="M-23 1243l222 311h71l222 -311h-62l-197 266l-194 -266h-62zM201 0v1106h65v-1106h-65z" />
<glyph unicode="&#xef;" horiz-adv-x="468" d="M76 1350v114h92v-114h-92zM201 0v1106h65v-1106h-65zM301 1350v114h90v-114h-90z" />
<glyph unicode="&#xf0;" horiz-adv-x="1316" d="M104 514q0 229 155 381t386 152q150 0 274.5 -72t192.5 -193q-37 217 -142.5 379t-269.5 256l-282 -250l-33 35l270 240q-186 92 -424 92v59q268 -2 474 -110l159 143l33 -35l-149 -131q213 -129 329.5 -368.5t118.5 -561.5q0 -238 -155.5 -394t-389.5 -156 q-236 0 -391.5 152.5t-155.5 381.5zM168 515q0 -202 138 -338t345 -136q133 0 244 62.5t173 171t62 239.5q-2 205 -140 339t-339 134q-209 0 -346 -135t-137 -337z" />
<glyph unicode="&#xf1;" horiz-adv-x="1312" d="M201 0v1106h53l10 -256q57 125 175 200.5t259 75.5q199 0 315.5 -129t116.5 -344v-653h-65v643q0 199 -100.5 310.5t-278.5 111.5q-111 0 -208 -57.5t-154.5 -154.5t-57.5 -210v-643h-65zM324 1282v25q0 98 45 158.5t120 60.5q51 0 91.5 -25.5t91.5 -87.5 q43 -51 74.5 -71.5t68.5 -20.5q55 0 88 46t33 124v18h47v-20q0 -98 -45 -158.5t-121 -60.5q-35 0 -63.5 11t-55 34.5t-61.5 62.5q-47 53 -79 75t-66 22q-55 0 -89 -47t-34 -121v-25h-45z" />
<glyph unicode="&#xf2;" horiz-adv-x="1357" d="M102 553q0 248 165 410.5t411 162.5q248 0 411.5 -163.5t163.5 -409.5t-163.5 -409.5t-411.5 -163.5q-246 0 -411 163.5t-165 409.5zM170 553q0 -219 145.5 -364.5t362.5 -145.5q145 0 261 65.5t182.5 183.5t66.5 261q0 219 -145.5 364.5t-364.5 145.5t-363.5 -144.5 t-144.5 -365.5zM492 1554h71l160 -311h-59z" />
<glyph unicode="&#xf3;" horiz-adv-x="1357" d="M102 553q0 248 165 410.5t411 162.5q248 0 411.5 -163.5t163.5 -409.5t-163.5 -409.5t-411.5 -163.5q-246 0 -411 163.5t-165 409.5zM170 553q0 -219 145.5 -364.5t362.5 -145.5q145 0 261 65.5t182.5 183.5t66.5 261q0 219 -145.5 364.5t-364.5 145.5t-363.5 -144.5 t-144.5 -365.5zM610 1243l160 311h72l-172 -311h-60z" />
<glyph unicode="&#xf4;" horiz-adv-x="1357" d="M102 553q0 248 165 410.5t411 162.5q248 0 411.5 -163.5t163.5 -409.5t-163.5 -409.5t-411.5 -163.5q-246 0 -411 163.5t-165 409.5zM170 553q0 -219 145.5 -364.5t362.5 -145.5q145 0 261 65.5t182.5 183.5t66.5 261q0 219 -145.5 364.5t-364.5 145.5t-363.5 -144.5 t-144.5 -365.5zM391 1243l248 311h78l250 -311h-66l-223 266l-221 -266h-66z" />
<glyph unicode="&#xf5;" horiz-adv-x="1357" d="M102 553q0 248 165 410.5t411 162.5q248 0 411.5 -163.5t163.5 -409.5t-163.5 -409.5t-411.5 -163.5q-246 0 -411 163.5t-165 409.5zM170 553q0 -219 145.5 -364.5t362.5 -145.5q145 0 261 65.5t182.5 183.5t66.5 261q0 219 -145.5 364.5t-364.5 145.5t-363.5 -144.5 t-144.5 -365.5zM336 1282v25q0 98 46 158.5t122 60.5q51 0 91 -25.5t89 -87.5q45 -51 76 -71.5t69 -20.5q55 0 88 46t33 124v18h47v-20q0 -98 -45 -158.5t-121 -60.5q-51 0 -90 24.5t-90 83.5q-47 53 -78.5 75t-68.5 22q-53 0 -87 -47.5t-34 -120.5v-25h-47z" />
<glyph unicode="&#xf6;" horiz-adv-x="1357" d="M102 553q0 248 165 410.5t411 162.5q248 0 411.5 -163.5t163.5 -409.5t-163.5 -409.5t-411.5 -163.5q-246 0 -411 163.5t-165 409.5zM170 553q0 -219 145.5 -364.5t362.5 -145.5q145 0 261 65.5t182.5 183.5t66.5 261q0 219 -145.5 364.5t-364.5 145.5t-363.5 -144.5 t-144.5 -365.5zM457 1352v114h100v-114h-100zM799 1352v114h100v-114h-100z" />
<glyph unicode="&#xf7;" horiz-adv-x="1280" d="M147 682v61h983v-61h-983zM586 376.5q0 22.5 15 38t38 15.5t39 -15.5t16 -38t-16 -38.5t-39 -16t-38 16t-15 38.5zM586 1044q0 23 15 39.5t38 16.5q12 0 22.5 -4t17.5 -11.5t11 -17.5t4 -23q0 -23 -16 -38t-39 -15t-38 15.5t-15 37.5z" />
<glyph unicode="&#xf8;" horiz-adv-x="1343" d="M100 555q0 244 163 405.5t405 161.5q129 0 239 -51l88 160h62l-99 -182q131 -72 207 -203t76 -293q0 -244 -160.5 -405.5t-402.5 -161.5q-147 0 -268 63l-97 -174h-61l108 199q-121 74 -190.5 199.5t-69.5 281.5zM166 555q0 -137 59.5 -249.5t165.5 -178.5l488 889 q-100 45 -211 45q-217 0 -359.5 -144.5t-142.5 -361.5zM438 104q111 -57 240 -57q215 0 357.5 144.5t142.5 361.5q0 145 -68 261t-182 181z" />
<glyph unicode="&#xf9;" horiz-adv-x="1292" d="M180 463v643h66v-635q0 -199 107.5 -313.5t292.5 -114.5t293 114.5t108 313.5v635h65v-643q0 -221 -126 -352t-340 -131t-340 131t-126 352zM459 1554h71l160 -311h-59z" />
<glyph unicode="&#xfa;" horiz-adv-x="1292" d="M180 463v643h66v-635q0 -199 107.5 -313.5t292.5 -114.5t293 114.5t108 313.5v635h65v-643q0 -221 -126 -352t-340 -131t-340 131t-126 352zM578 1243l159 311h72l-172 -311h-59z" />
<glyph unicode="&#xfb;" horiz-adv-x="1292" d="M180 463v643h66v-635q0 -199 107.5 -313.5t292.5 -114.5t293 114.5t108 313.5v635h65v-643q0 -221 -126 -352t-340 -131t-340 131t-126 352zM358 1243l248 311h78l250 -311h-66l-223 266l-221 -266h-66z" />
<glyph unicode="&#xfc;" horiz-adv-x="1292" d="M180 463v643h66v-635q0 -199 107.5 -313.5t292.5 -114.5t293 114.5t108 313.5v635h65v-643q0 -221 -126 -352t-340 -131t-340 131t-126 352zM424 1352v114h100v-114h-100zM766 1352v114h100v-114h-100z" />
<glyph unicode="&#xfd;" horiz-adv-x="1173" d="M49 1106h74l479 -971l451 971h69l-563 -1204q-53 -115 -107.5 -178.5t-117 -89t-154.5 -25.5h-86v61h82q117 0 185.5 50.5t138.5 199.5l67 141zM528 1243l160 311h74l-174 -311h-60z" />
<glyph unicode="&#xfe;" horiz-adv-x="1435" d="M201 -391v1888h65v-678q70 141 203 224t301 83q244 0 402.5 -163.5t158.5 -409.5t-158.5 -409.5t-402.5 -163.5q-168 0 -301 82.5t-203 224.5v-678h-65zM264 553q0 -217 143.5 -363.5t358.5 -146.5q217 0 358.5 144.5t141.5 365.5t-141.5 365.5t-358.5 144.5 q-141 0 -256 -66.5t-180.5 -183.5t-65.5 -260z" />
<glyph unicode="&#xff;" horiz-adv-x="1173" d="M49 1106h74l479 -971l451 971h69l-563 -1204q-53 -115 -107.5 -178.5t-117 -89t-154.5 -25.5h-86v61h82q117 0 185.5 50.5t138.5 199.5l67 141zM377 1352v114h98v-114h-98zM719 1352v114h98v-114h-98z" />
<glyph unicode="&#x152;" horiz-adv-x="2002" d="M115 715q0 207 88 377t241.5 266t339.5 96q129 0 248 -22v2h852v-64h-782v-614h729v-64h-729v-629h805v-63h-875v2q-123 -23 -248 -22q-285 0 -477 210.5t-192 524.5zM182 715q0 -289 174.5 -479.5t434.5 -190.5q117 0 241 18v1305q-129 20 -244 21q-258 0 -432 -194 t-174 -480z" />
<glyph unicode="&#x153;" horiz-adv-x="2379" d="M102 553q0 248 165 410.5t411 162.5q190 0 335.5 -102t205.5 -274q55 170 196 273t326 103q233 0 388 -161.5t155 -403.5q0 -10 -3 -29h-1032q8 -211 146.5 -350t345.5 -139q143 0 256.5 71.5t181.5 200.5h70q-78 -164 -209 -249.5t-299 -85.5q-184 0 -325.5 103 t-196.5 273q-57 -170 -204 -273t-337 -103q-246 0 -411 163.5t-165 409.5zM170 553q0 -219 145.5 -364.5t362.5 -145.5q219 0 363.5 145.5t144.5 364.5t-144.5 364.5t-363.5 145.5t-363.5 -144.5t-144.5 -365.5zM1251 594h969q-12 209 -147 340t-332 131 q-133 0 -241.5 -60.5t-174 -168t-74.5 -242.5z" />
<glyph unicode="&#x178;" horiz-adv-x="1310" d="M74 1434h73l508 -803l512 803h74l-553 -867v-567h-67v565zM399 1675v115h101v-115h-101zM815 1675v115h100v-115h-100z" />
<glyph unicode="&#x2c6;" horiz-adv-x="1228" d="M360 1243l250 311h76l250 -311h-64l-225 266l-221 -266h-66z" />
<glyph unicode="&#x2dc;" horiz-adv-x="1228" d="M276 1282v25q0 98 45.5 158.5t122.5 60.5q51 0 90 -25.5t91 -87.5q43 -51 74.5 -71.5t70.5 -20.5q55 0 88 46t33 124v18h47v-20q0 -98 -46 -158.5t-122 -60.5q-49 0 -89 24.5t-91 83.5q-47 53 -78 75t-68 22q-53 0 -86.5 -47.5t-33.5 -120.5v-25h-48z" />
<glyph unicode="&#x2000;" horiz-adv-x="992" />
<glyph unicode="&#x2001;" horiz-adv-x="1985" />
<glyph unicode="&#x2002;" horiz-adv-x="992" />
<glyph unicode="&#x2003;" horiz-adv-x="1985" />
<glyph unicode="&#x2004;" horiz-adv-x="661" />
<glyph unicode="&#x2005;" horiz-adv-x="496" />
<glyph unicode="&#x2006;" horiz-adv-x="330" />
<glyph unicode="&#x2007;" horiz-adv-x="330" />
<glyph unicode="&#x2008;" horiz-adv-x="248" />
<glyph unicode="&#x2009;" horiz-adv-x="397" />
<glyph unicode="&#x200a;" horiz-adv-x="110" />
<glyph unicode="&#x2010;" horiz-adv-x="946" d="M156 539v63h635v-63h-635z" />
<glyph unicode="&#x2011;" horiz-adv-x="946" d="M156 539v63h635v-63h-635z" />
<glyph unicode="&#x2012;" horiz-adv-x="946" d="M156 539v63h635v-63h-635z" />
<glyph unicode="&#x2013;" horiz-adv-x="1316" d="M156 539v63h1005v-63h-1005z" />
<glyph unicode="&#x2014;" horiz-adv-x="1830" d="M154 539v63h1523v-63h-1523z" />
<glyph unicode="&#x2018;" horiz-adv-x="391" d="M135 1186v117q0 94 27 145t88 86v-55q-37 -25 -52.5 -62t-15.5 -106h72v-125h-119z" />
<glyph unicode="&#x2019;" horiz-adv-x="378" d="M139 1335v125h119v-117q0 -94 -26 -145t-89 -86v55q39 25 53.5 62t14.5 106h-72z" />
<glyph unicode="&#x201a;" horiz-adv-x="399" d="M139 0v127h119v-119q0 -94 -27 -145t-88 -84v53q37 27 52.5 62.5t15.5 105.5h-72z" />
<glyph unicode="&#x201c;" horiz-adv-x="638" d="M135 1192v119q1 160 103 217l12 -41q-70 -49 -70 -170h74v-125h-119zM385 1192v119q0 160 100 217l13 -41q-70 -49 -70 -170h74v-125h-117z" />
<glyph unicode="&#x201d;" horiz-adv-x="626" d="M139 1333v125h119v-119q0 -160 -102 -217l-13 41q70 49 70 170h-74zM389 1333v125h117v-119q0 -160 -100 -217l-13 41q70 49 70 170h-74z" />
<glyph unicode="&#x201e;" horiz-adv-x="649" d="M139 0v127h119v-121q0 -158 -102 -215l-13 39q70 49 70 170h-74zM389 0v127h117v-121q0 -158 -100 -215l-13 39q70 49 70 170h-74z" />
<glyph unicode="&#x2022;" horiz-adv-x="606" d="M193 600q0 31 14 56.5t39.5 40t56.5 14.5q47 0 79 -32t32 -79t-32 -79t-79 -32t-78.5 32t-31.5 79z" />
<glyph unicode="&#x2026;" horiz-adv-x="884" d="M139 0v127h99v-127h-99zM393 0v127h99v-127h-99zM647 0v127h98v-127h-98z" />
<glyph unicode="&#x202f;" horiz-adv-x="397" />
<glyph unicode="&#x2039;" horiz-adv-x="667" d="M100 537v20l363 410h78l-369 -420l369 -420h-78z" />
<glyph unicode="&#x203a;" horiz-adv-x="667" d="M127 127l369 420l-369 420h78l362 -410v-20l-362 -410h-78z" />
<glyph unicode="&#x205f;" horiz-adv-x="496" />
<glyph unicode="&#x20ac;" horiz-adv-x="1329" d="M74 487l14 60h174q-14 68 -14 141q0 70 12 137h-182l14 60h180q61 231 248 371.5t434 140.5q164 0 303 -60l-14 -57q-129 59 -285 59q-223 0 -391 -126t-227 -328h803l-15 -60h-802q-12 -68 -13 -137q0 -74 15 -141h727l-15 -60h-698q59 -203 227 -325.5t389 -122.5 q121 0 224 35v-62q-106 -35 -230 -35q-246 0 -431 141.5t-247 368.5h-200z" />
<glyph unicode="&#x2122;" horiz-adv-x="1748" d="M61 1384v50h631v-50h-289v-706h-51v706h-291zM657 678l134 756h47l295 -668l294 668h52l129 -756h-52l-116 670l-297 -670h-21l-297 670l-116 -670h-52z" />
<glyph unicode="&#x25fc;" horiz-adv-x="1105" d="M0 0v1106h1106v-1106h-1106z" />
</font>
</defs>
</svg>
