<svg width="628" height="94" viewBox="0 0 628 94" fill="none" xmlns="http://www.w3.org/2000/svg">
<path fill-rule="evenodd" clip-rule="evenodd" d="M609.137 94H627.557L611.039 74.9861C619.238 67.1429 624.23 56.091 624.23 43.3755C624.23 18.6574 605.335 0 580.022 0C554.591 0 535.578 18.7762 535.578 43.3755C535.578 68.0936 554.591 86.8698 580.022 86.8698C587.034 86.8698 593.689 85.4437 599.393 82.7105L609.137 94ZM587.39 68.8066C585.132 69.5196 582.637 69.8761 580.022 69.8761C565.168 69.8761 553.878 58.3489 553.878 43.3755C553.878 28.402 565.168 16.9937 580.022 16.9937C594.877 16.9937 605.929 28.2832 605.929 43.3755C605.929 50.5057 603.552 56.804 599.393 61.4387L589.292 49.6738H570.872L587.39 68.8066Z" fill="white"/>
<path d="M465.586 18.5385V1.7825H401.295V18.5385H424.468V84.9683H442.413V18.5385H465.586Z" fill="white"/>
<path d="M340.856 68.3312H374.13V84.9683H322.911V1.7825H372.823V18.4197H340.856V34.938H369.733V51.2187H340.856V68.3312Z" fill="white"/>
<path d="M288.733 68.3312H255.459V51.2187H284.336V34.938H255.459V18.4197H287.426V1.7825H237.514V84.9683H288.733V68.3312Z" fill="white"/>
<path d="M188.433 1.7825H207.209L181.54 84.9683H165.497L146.959 38.3843L128.895 84.9683H112.852L86.7084 1.7825H105.722L122.122 57.1605L143.988 2.7332H150.048L172.39 57.0417L188.433 1.7825Z" fill="white"/>
<path d="M0 58.1116C0 75.9371 13.1909 86.6325 32.3236 86.6325C49.5549 86.6325 63.8153 77.9574 63.8153 60.013C63.8153 41.488 48.1164 37.4904 35.5631 34.2938C35.4734 34.271 35.3839 34.2481 35.2945 34.2254C26.3817 32.0863 19.2515 30.3038 19.2515 24.4808C19.2515 19.0143 25.0745 16.5187 30.8975 16.5187C37.6712 16.5187 43.6131 19.8461 43.6131 27.0952H61.3197C61.3197 10.458 50.5056 0.238021 31.3729 0.238021C12.9532 0.238021 1.18837 9.26963 1.18837 25.1938C1.18837 43.0913 16.3202 46.8028 28.8975 49.8877L28.9962 49.9119C38.0277 51.9321 45.6333 53.7146 45.6333 60.2507C45.6333 66.4302 38.9784 69.9953 32.2047 69.9953C24.8369 69.9953 18.182 66.0737 18.182 58.1116H0Z" fill="white"/>
</svg>
