<svg width="68" height="24" viewBox="0 0 68 24" fill="none" xmlns="http://www.w3.org/2000/svg">
<path d="M10.068 2C4.49871 2 0 6.48029 0 12C0 17.5317 4.51074 22 10.068 22C15.6372 22 20.1359 17.5197 20.1359 12C20.1359 6.48029 15.6252 2 10.068 2ZM14.687 16.4325C14.5065 16.7312 14.1216 16.8148 13.8209 16.6356C11.4513 15.2019 8.48019 14.8793 4.96783 15.6679C4.63103 15.7395 4.29422 15.5364 4.22205 15.2019C4.14988 14.8674 4.35437 14.5329 4.69117 14.4612C8.5283 13.589 11.8242 13.9594 14.4705 15.5723C14.7712 15.7515 14.8674 16.1338 14.687 16.4325ZM15.9139 13.7085C15.6853 14.0789 15.2042 14.1864 14.8313 13.9713C12.1249 12.3226 7.99904 11.8447 4.79943 12.8005C4.37842 12.92 3.94539 12.693 3.82511 12.2867C3.70482 11.8686 3.93336 11.4385 4.35437 11.319C8.01107 10.2198 12.5579 10.7455 15.6733 12.6452C16.0342 12.8602 16.1424 13.3381 15.9139 13.7085ZM16.0221 10.865C12.7744 8.9534 7.42167 8.77419 4.31828 9.70609C3.82511 9.86141 3.29585 9.57467 3.13947 9.08483C2.9831 8.59498 3.27179 8.06929 3.76496 7.91398C7.32544 6.83871 13.2435 7.05376 16.9724 9.25209C17.4175 9.51493 17.5618 10.0884 17.2972 10.5305C17.0566 10.9845 16.4672 11.1278 16.0221 10.865ZM27.4012 11.2354C25.6571 10.8292 25.3564 10.5305 25.3564 9.92115C25.3564 9.34767 25.8977 8.96535 26.7036 8.96535C27.4854 8.96535 28.2673 9.26404 29.0852 9.86141C29.1093 9.8853 29.1454 9.8853 29.1694 9.8853C29.2055 9.8853 29.2296 9.86141 29.2416 9.83751L30.0957 8.64277C30.1317 8.59498 30.1197 8.5233 30.0716 8.48746C29.0973 7.71087 28.0147 7.3405 26.7276 7.3405C24.8512 7.3405 23.54 8.46356 23.54 10.0645C23.54 11.7849 24.6707 12.3943 26.6314 12.8602C28.2914 13.2425 28.58 13.5651 28.58 14.1266C28.58 14.7599 28.0147 15.1541 27.1005 15.1541C26.0901 15.1541 25.2601 14.8196 24.3339 14.0191C24.3099 13.9952 24.2858 13.9952 24.2497 13.9952C24.2136 13.9952 24.1896 14.0072 24.1776 14.0311L23.2273 15.1541C23.1912 15.2019 23.1912 15.2736 23.2393 15.3094C24.3219 16.2652 25.6451 16.767 27.0765 16.767C29.0973 16.767 30.4084 15.6679 30.4084 13.9713C30.3843 12.5376 29.5183 11.7491 27.4012 11.2354ZM34.9673 9.52688C34.0892 9.52688 33.3674 9.87336 32.778 10.5783V9.78972C32.778 9.72999 32.7299 9.6822 32.6698 9.6822H31.1061C31.0459 9.6822 30.9978 9.72999 30.9978 9.78972V18.583C30.9978 18.6428 31.0459 18.6906 31.1061 18.6906H32.6698C32.7299 18.6906 32.778 18.6428 32.778 18.583V15.8112C33.3674 16.4683 34.0892 16.7909 34.9673 16.7909C36.5911 16.7909 38.2511 15.5484 38.2511 13.1589C38.239 10.7814 36.5911 9.52688 34.9673 9.52688ZM36.4347 13.1589C36.4347 14.3656 35.689 15.2139 34.6064 15.2139C33.5358 15.2139 32.742 14.3297 32.742 13.1589C32.742 11.9881 33.5479 11.1039 34.6064 11.1039C35.6649 11.1039 36.4347 11.9642 36.4347 13.1589ZM42.4731 9.52688C40.3681 9.52688 38.7322 11.1278 38.7322 13.1828C38.7322 15.2139 40.3681 16.8029 42.4491 16.8029C44.5541 16.8029 46.202 15.2019 46.202 13.1589C46.202 11.1278 44.5661 9.52688 42.4731 9.52688ZM42.4731 15.2258C41.3545 15.2258 40.5125 14.3297 40.5125 13.1589C40.5125 11.9761 41.3304 11.1159 42.4491 11.1159C43.5677 11.1159 44.4218 12.0119 44.4218 13.1947C44.4097 14.3656 43.5918 15.2258 42.4731 15.2258ZM50.6767 9.67025H48.9686V7.92593C48.9686 7.86619 48.9205 7.8184 48.8603 7.8184H47.2966C47.2365 7.8184 47.1763 7.86619 47.1763 7.92593V9.67025H46.4305C46.3704 9.67025 46.3223 9.71804 46.3223 9.77778V11.1039C46.3223 11.1637 46.3704 11.2115 46.4305 11.2115H47.1763V14.6523C47.1763 16.0382 47.874 16.7431 49.2452 16.7431C49.7986 16.7431 50.2677 16.6237 50.7007 16.3847C50.7368 16.3608 50.7608 16.325 50.7608 16.2891V15.0227C50.7608 14.9869 50.7368 14.951 50.7007 14.9271C50.6646 14.9032 50.6285 14.9032 50.5924 14.9271C50.2917 15.0705 50.003 15.1422 49.6783 15.1422C49.1851 15.1422 48.9566 14.9152 48.9566 14.4134V11.2234H50.6646C50.7248 11.2234 50.7729 11.1756 50.7729 11.1159V9.78972C50.7969 9.71804 50.7488 9.67025 50.6767 9.67025ZM56.6549 9.6822V9.46714C56.6549 8.83393 56.8955 8.55914 57.4367 8.55914C57.7615 8.55914 58.0261 8.61888 58.3148 8.71446C58.3509 8.7264 58.387 8.71446 58.4231 8.70251C58.4472 8.67861 58.4712 8.64277 58.4712 8.60693V7.30466C58.4712 7.25687 58.4351 7.20908 58.387 7.19713C58.0743 7.10155 57.6893 7.01792 57.0879 7.01792C55.6445 7.01792 54.8867 7.8184 54.8867 9.34767V9.67025H54.1409C54.0808 9.67025 54.0206 9.71804 54.0206 9.77778V11.1159C54.0206 11.1756 54.0687 11.2234 54.1409 11.2234H54.8867V16.5281C54.8867 16.5878 54.9348 16.6356 55.007 16.6356H56.5587C56.6188 16.6356 56.6789 16.5878 56.6789 16.5281V11.2234H58.1344L60.3597 16.5281C60.1071 17.0896 59.8545 17.1971 59.5177 17.1971C59.241 17.1971 58.9524 17.1135 58.6637 16.9582C58.6396 16.9462 58.6035 16.9462 58.5674 16.9462C58.5434 16.9582 58.5073 16.9821 58.4953 17.006L57.966 18.1529C57.942 18.2127 57.966 18.2724 58.0141 18.2963C58.5674 18.595 59.0606 18.7145 59.6741 18.7145C60.8288 18.7145 61.4663 18.1768 62.0197 16.7551L64.7261 9.82557C64.7381 9.78973 64.7381 9.75388 64.7141 9.71804C64.69 9.6822 64.6539 9.67025 64.6178 9.67025H62.994C62.9459 9.67025 62.8977 9.70609 62.8857 9.74193L61.2258 14.4492L59.4094 9.72999C59.3974 9.6822 59.3493 9.6583 59.3012 9.6583L56.6549 9.6822ZM53.1906 9.67025H51.6269C51.5668 9.67025 51.5066 9.71804 51.5066 9.77778V16.5281C51.5066 16.5878 51.5547 16.6356 51.6269 16.6356H53.1906C53.2508 16.6356 53.3109 16.5878 53.3109 16.5281V9.78972C53.2989 9.71804 53.2508 9.67025 53.1906 9.67025ZM52.4208 6.59976C51.8073 6.59976 51.3021 7.10155 51.3021 7.71087C51.3021 8.32019 51.8073 8.82198 52.4208 8.82198C53.0343 8.82198 53.5395 8.32019 53.5395 7.71087C53.5395 7.08961 53.0343 6.59976 52.4208 6.59976ZM66.0613 11.8447C65.4478 11.8447 64.9667 11.3548 64.9667 10.7575C64.9667 10.1601 65.4478 9.6583 66.0733 9.6583C66.6988 9.6583 67.1679 10.1481 67.1679 10.7455C67.1679 11.3429 66.6747 11.8447 66.0613 11.8447ZM66.0733 9.76583C65.508 9.76583 65.087 10.2079 65.087 10.7575C65.087 11.2951 65.508 11.7372 66.0733 11.7372C66.6386 11.7372 67.0597 11.2951 67.0597 10.7455C67.0476 10.2079 66.6266 9.76583 66.0733 9.76583ZM66.3139 10.853L66.6266 11.2832H66.362L66.0853 10.8889H65.8448V11.2832H65.6283V10.1362H66.1455C66.4101 10.1362 66.5905 10.2676 66.5905 10.5066C66.5785 10.6977 66.4703 10.8172 66.3139 10.853ZM66.1214 10.3393H65.8327V10.6977H66.1214C66.2658 10.6977 66.35 10.626 66.35 10.5185C66.35 10.411 66.2658 10.3393 66.1214 10.3393Z" fill="white"/>
</svg>
