<svg width="60" height="24" viewBox="0 0 60 24" fill="none" xmlns="http://www.w3.org/2000/svg">
<g clip-path="url(#clip0_836_90)">
<path d="M25.0857 17.8554V8.08653H25.0133L21.1058 17.8554H19.5862L15.6787 8.08653H15.6063V17.8554H13.7973V4.61316H16.1128L20.3098 15.178H20.3822L24.5792 4.61316H26.9671V17.8554H25.0857ZM37.1701 17.8554H35.2887V16.1911H35.2164C34.7098 17.3488 33.6968 18.0001 32.2495 18.0001C30.151 18.0001 28.9209 16.6252 28.9209 14.382V8.15889H30.8746V14.0202C30.8746 15.4674 31.5983 16.2634 32.9008 16.2634C34.348 16.2634 35.144 15.2503 35.144 13.7308V8.15889H37.0978L37.1701 17.8554ZM42.5249 8.01417C44.7681 8.01417 46.143 9.24432 46.2153 11.0534H44.4063C44.2616 10.1127 43.6103 9.53377 42.5249 9.53377C41.4395 9.53377 40.7159 10.0403 40.7159 10.8363C40.7159 11.4152 41.15 11.8493 42.1631 12.0664L43.6827 12.4282C45.6365 12.8624 46.3601 13.6584 46.3601 15.0333C46.3601 16.7699 44.7681 18.0001 42.5249 18.0001C40.137 18.0001 38.6897 16.8423 38.545 14.9609H40.4988C40.6435 15.974 41.3671 16.4805 42.5249 16.4805C43.6827 16.4805 44.4063 15.974 44.4063 15.178C44.4063 14.5267 44.0445 14.1649 43.0314 13.9478L41.5118 13.586C39.7028 13.1519 38.8344 12.2835 38.8344 10.8363C38.8344 9.17196 40.2817 8.01417 42.5249 8.01417ZM47.8073 5.62623C47.8073 4.97497 48.3138 4.46844 48.9651 4.46844C49.6164 4.46844 50.1229 4.97497 50.1229 5.62623C50.1229 6.27748 49.6164 6.78402 48.9651 6.78402C48.3138 6.78402 47.8073 6.27748 47.8073 5.62623ZM47.952 8.15889H49.9058V17.8554H47.952V8.15889ZM58.155 11.4875C57.938 10.4745 57.2143 9.60613 55.9118 9.60613C54.3922 9.60613 53.3792 10.9086 53.3792 12.9348C53.3792 15.0333 54.3922 16.2634 55.9118 16.2634C57.142 16.2634 57.8656 15.6122 58.155 14.4544H60.0364C59.8194 16.4805 58.2274 17.9277 55.9118 17.9277C53.1621 17.9277 51.4254 16.0463 51.4254 12.9348C51.4254 9.89558 53.1621 7.94181 55.9118 7.94181C58.3721 7.94181 59.8194 9.53377 60.0364 11.4152L58.155 11.4875ZM7.79123 5.91568C7.2847 6.49457 6.48872 7.0011 5.69274 6.92874C5.54801 6.0604 5.98218 5.19206 6.41636 4.68552C6.92289 4.03427 7.79123 3.6001 8.51485 3.6001C8.58721 4.39608 8.29776 5.26442 7.79123 5.91568ZM8.51485 7.07346C8.94902 7.07346 10.2515 7.21819 11.1199 8.5207C11.0475 8.59306 9.60027 9.4614 9.60027 11.2704C9.60027 13.4413 11.4817 14.1649 11.4817 14.1649C11.4817 14.2373 11.1922 15.178 10.541 16.1911C9.96208 17.0594 9.31083 17.9277 8.37012 17.9277C7.42942 17.9277 7.13997 17.3488 6.05455 17.3488C4.96912 17.3488 4.60731 17.9277 3.73897 17.9277C2.79826 17.9277 2.07465 16.987 1.49575 16.1187C0.265602 14.3096 -0.675102 11.0534 0.627411 8.88251C1.20631 7.79708 2.36409 7.07346 3.52188 7.07346C4.46259 7.07346 5.33093 7.72472 5.83746 7.72472C6.34399 7.72472 7.35706 7.0011 8.51485 7.07346Z" fill="white"/>
</g>
<defs>
<clipPath id="clip0_836_90">
<rect width="60" height="24" fill="white"/>
</clipPath>
</defs>
</svg>
