<svg width="75" height="24" viewBox="0 0 75 24" fill="none" xmlns="http://www.w3.org/2000/svg">
<g clip-path="url(#clip0_836_67)">
<path fill-rule="evenodd" clip-rule="evenodd" d="M13.9404 12C13.9404 15.8495 10.8197 18.9702 6.9702 18.9702C3.12066 18.9702 0 15.8495 0 12C0 8.15045 3.12066 5.02979 6.9702 5.02979C10.8197 5.02979 13.9404 8.15045 13.9404 12ZM2.70703 12.0001C2.70703 9.64571 4.61563 7.73711 6.97003 7.73711C9.32443 7.73711 11.233 9.64571 11.233 12.0001C11.233 14.3545 9.32443 16.2631 6.97003 16.2631C4.61563 16.2631 2.70703 14.3545 2.70703 12.0001ZM3.27403 12.0001C3.27403 14.0413 4.92883 15.6961 6.97003 15.6961C9.01123 15.6961 10.666 14.0413 10.666 12.0001C10.666 9.95891 9.01123 8.30411 6.97003 8.30411C4.92883 8.30411 3.27403 9.95891 3.27403 12.0001ZM5.66863 9.93791V14.0401L9.23383 11.9803L5.66863 9.93791Z" fill="white"/>
<path d="M18.9021 7.27588L17.8869 12.0921L16.8573 7.27588H15.3105L17.0859 13.7463V16.9089H18.6465V13.7739L20.4627 7.27588H18.9021Z" fill="white"/>
<path d="M22.2979 9.70605C21.3691 9.70605 20.0605 9.98565 20.0605 12.6713C20.0605 12.6713 20.0605 13.3871 20.0605 13.8239C20.0605 15.3905 20.2507 16.9793 22.2199 16.9793C24.1891 16.9793 24.4573 15.6479 24.4573 13.7573V12.9851C24.4573 11.5523 24.3679 9.70605 22.2979 9.70605ZM22.8541 14.6963C22.8541 15.4199 22.7347 15.9347 22.2595 15.9347C21.7837 15.9347 21.6757 15.3155 21.6757 14.7041C21.6757 14.0927 21.6757 13.1153 21.6757 12.0923C21.6757 11.0693 21.9589 10.7957 22.2595 10.7957C22.8355 10.7957 22.8541 11.5937 22.8541 12.0191C22.8541 12.4439 22.8541 13.9727 22.8541 14.6963Z" fill="white"/>
<path d="M27.9826 15.4352C27.9826 15.4352 27.8146 15.89 27.3076 15.89C26.9572 15.89 26.8528 15.5546 26.8528 15.0842C26.8528 14.6144 26.8642 9.85156 26.8642 9.85156H25.2754C25.2754 9.85156 25.2754 13.913 25.2754 14.9426C25.2754 15.9722 25.4206 16.979 26.629 16.979C27.8374 16.979 28.1842 15.983 28.1842 15.983L28.3408 16.9082H29.5606V9.85216H27.9832L27.9826 15.4352Z" fill="white"/>
<path d="M36.1056 15.4352C36.1056 15.4352 35.9376 15.89 35.4306 15.89C35.0802 15.89 34.9758 15.5546 34.9758 15.0842C34.9758 14.6144 34.9872 9.85156 34.9872 9.85156H33.3984C33.3984 9.85156 33.3984 13.913 33.3984 14.9426C33.3984 15.9722 33.5436 16.979 34.752 16.979C35.9604 16.979 36.3072 15.983 36.3072 15.983L36.4638 16.9082H37.6836V9.85216H36.1062L36.1056 15.4352Z" fill="white"/>
<path d="M61.034 15.4352C61.034 15.4352 60.866 15.89 60.359 15.89C60.0086 15.89 59.915 15.5546 59.915 15.0842C59.915 14.6144 59.915 9.85156 59.915 9.85156H58.3262C58.3262 9.85156 58.3262 13.913 58.3262 14.9426C58.3262 15.9722 58.4714 16.979 59.6798 16.979C60.8882 16.979 61.235 15.983 61.235 15.983L61.3916 16.9082H62.6114V9.85216H61.034V15.4352Z" fill="white"/>
<path d="M33.8675 7.27588H29.1797V8.53168H30.7349V16.9089H32.3009V8.53168H33.8675V7.27588Z" fill="white"/>
<path d="M41.6212 9.71764C40.9324 9.71764 40.4266 10.155 40.1446 10.6878V6.89404H38.623V16.908H39.9508L40.1242 16.1898C40.1242 16.1898 40.5472 16.9782 41.4982 16.9782C42.4492 16.9782 43.0756 16.2174 43.0756 14.1366C43.0756 14.1366 43.1146 12.6096 43.0756 12.57C43.0762 11.1384 42.8968 9.71764 41.6212 9.71764ZM41.4874 14.1222C41.4874 15.6588 41.152 15.8676 40.786 15.8676C40.4206 15.8676 40.1746 15.5172 40.1746 15.5172V11.4894C40.2118 11.2356 40.5622 10.833 40.8586 10.833C41.4154 10.833 41.4874 11.5416 41.4874 12.5856C41.4874 12.8166 41.4874 13.2048 41.4874 14.1222Z" fill="white"/>
<path d="M45.909 9.70605C45.0204 9.70605 43.7676 9.98565 43.7676 12.6713C43.7676 12.6713 43.7676 13.3871 43.7676 13.8239C43.7676 15.3905 43.9494 16.9793 45.834 16.9793C47.3388 16.9793 47.9754 16.2635 47.9328 14.8259C47.9316 14.7905 46.5432 14.7191 46.5432 14.7191C46.542 15.4289 46.4844 15.9347 45.9282 15.9347C45.3648 15.9347 45.3132 15.3155 45.3132 14.7041C45.3132 14.4797 45.3132 14.2055 45.3132 13.8983H47.973L47.9754 12.9731C47.976 11.5427 48.0396 9.70605 45.909 9.70605ZM45.3132 12.9731C45.3132 12.6887 45.3132 12.3923 45.3132 12.0917C45.3132 11.0687 45.4842 10.7873 45.8928 10.7873C46.5642 10.7873 46.4832 11.5931 46.4832 12.0179C46.4832 12.1931 46.4934 12.5561 46.5054 12.9725L45.3132 12.9731Z" fill="white"/>
<path d="M73.629 14.2789C73.6662 15.4351 73.4652 15.9349 73.0272 15.9349C72.5892 15.9349 72.4656 15.5173 72.4656 14.7193C72.4656 14.4361 72.4656 13.2127 72.4656 12.1237C72.4656 11.0347 72.6822 10.7887 73.0026 10.7887C73.5174 10.7887 73.5846 11.3929 73.5846 11.9815C73.5846 12.1447 73.5846 12.5197 73.5846 12.5197L74.9496 12.4225C75.0912 10.2967 74.3454 9.70752 73.0086 9.70752C72.12 9.70752 70.8672 9.98712 70.8672 12.6727C70.8672 12.6727 70.8672 13.3885 70.8672 13.8253C70.8672 15.3919 71.049 16.9807 72.9336 16.9807C74.9226 16.9807 75.0018 15.7351 75.0018 14.3623L73.629 14.2789Z" fill="white"/>
<path d="M54.5073 10.0383C54.3297 10.9395 53.8869 13.2303 53.7387 14.7819H53.6205C53.5911 13.4223 52.3179 7.27588 52.3179 7.27588H50.0781V16.9089H51.4629V8.95948L53.0001 16.9089H54.3747L55.9119 9.00388V16.9089H57.3009V7.27588H55.0839C55.0839 7.27588 54.6843 9.13648 54.5073 10.0383Z" fill="white"/>
<path d="M65.9377 12.8093C65.2141 12.2423 64.8637 12.0263 64.8637 11.4143C64.8637 11.0639 65.0737 10.8323 65.5021 10.8323C65.8783 10.8323 66.1063 11.0441 66.1045 12.1841L67.4317 12.1307C67.4317 12.1307 67.4395 11.5631 67.3783 11.0795C67.3171 10.5965 67.0027 9.72949 65.5069 9.72949C64.5019 9.72949 63.4969 10.0823 63.4969 11.6009C63.4969 12.6977 64.0567 13.2197 65.1079 14.0477C65.9593 14.6921 66.1627 14.9717 66.1627 15.3149C66.1627 15.6581 65.9989 15.9563 65.5213 15.9563C65.0437 15.9563 64.7905 15.4643 64.8427 14.7257L63.4975 14.7329C63.4975 14.7329 63.4333 15.5981 63.6121 16.0529C63.7909 16.5077 64.1893 17.0303 65.4595 17.0303C66.7297 17.0303 67.5205 16.4855 67.5205 15.1583C67.5187 13.8311 66.6607 13.3763 65.9377 12.8093Z" fill="white"/>
<path d="M69.8842 9.85205H68.3848V16.8673H69.8842V9.85205Z" fill="white"/>
<path d="M69.3358 7.07764H69.0088C68.6308 7.07764 68.3242 7.38424 68.3242 7.76224V8.32924C68.3242 8.70724 68.6308 9.01384 69.0088 9.01384H69.3358C69.7138 9.01384 70.0204 8.70724 70.0204 8.32924V7.76224C70.0198 7.38424 69.7138 7.07764 69.3358 7.07764Z" fill="white"/>
</g>
<defs>
<clipPath id="clip0_836_67">
<rect width="75" height="24" fill="white"/>
</clipPath>
</defs>
</svg>
