<svg width="75" height="24" viewBox="0 0 75 24" fill="none" xmlns="http://www.w3.org/2000/svg">
<g clip-path="url(#clip0_812_1221)">
<path d="M6.9702 18.9702C10.8197 18.9702 13.9404 15.8495 13.9404 12C13.9404 8.15045 10.8197 5.02979 6.9702 5.02979C3.12066 5.02979 0 8.15045 0 12C0 15.8495 3.12066 18.9702 6.9702 18.9702Z" fill="#FF0000"/>
<path d="M6.97015 7.73706C4.61575 7.73706 2.70715 9.64566 2.70715 12.0001C2.70715 14.3545 4.61575 16.2631 6.97015 16.2631C9.32455 16.2631 11.2332 14.3545 11.2332 12.0001C11.2332 9.64566 9.32455 7.73706 6.97015 7.73706ZM6.97015 15.6961C4.92895 15.6961 3.27415 14.0413 3.27415 12.0001C3.27415 9.95886 4.92895 8.30406 6.97015 8.30406C9.01135 8.30406 10.6662 9.95886 10.6662 12.0001C10.6662 14.0413 9.01135 15.6961 6.97015 15.6961Z" fill="white"/>
<path d="M5.66882 14.0399V9.93774L9.23402 11.9801L5.66882 14.0399Z" fill="white"/>
<path d="M18.9018 7.27563L17.8866 12.0918L16.857 7.27563H15.3102L17.0856 13.746V16.9086H18.6462V13.7736L20.4624 7.27563H18.9018Z" fill="white"/>
<path d="M22.2984 9.7063C21.3696 9.7063 20.061 9.9859 20.061 12.6715C20.061 12.6715 20.061 13.3873 20.061 13.8241C20.061 15.3907 20.2512 16.9795 22.2204 16.9795C24.1896 16.9795 24.4578 15.6481 24.4578 13.7575V12.9853C24.4578 11.5525 24.3684 9.7063 22.2984 9.7063ZM22.8546 14.6965C22.8546 15.4201 22.7352 15.9349 22.26 15.9349C21.7842 15.9349 21.6762 15.3157 21.6762 14.7043C21.6762 14.0929 21.6762 13.1155 21.6762 12.0925C21.6762 11.0695 21.9594 10.7959 22.26 10.7959C22.836 10.7959 22.8546 11.5939 22.8546 12.0193C22.8546 12.4441 22.8546 13.9729 22.8546 14.6965Z" fill="white"/>
<path d="M27.9822 15.4352C27.9822 15.4352 27.8142 15.89 27.3072 15.89C26.9568 15.89 26.8524 15.5546 26.8524 15.0842C26.8524 14.6144 26.8638 9.85156 26.8638 9.85156H25.275C25.275 9.85156 25.275 13.913 25.275 14.9426C25.275 15.9722 25.4202 16.979 26.6286 16.979C27.837 16.979 28.1838 15.983 28.1838 15.983L28.3404 16.9082H29.5602V9.85216H27.9828L27.9822 15.4352Z" fill="white"/>
<path d="M36.105 15.4352C36.105 15.4352 35.937 15.89 35.43 15.89C35.0796 15.89 34.9752 15.5546 34.9752 15.0842C34.9752 14.6144 34.9866 9.85156 34.9866 9.85156H33.3978C33.3978 9.85156 33.3978 13.913 33.3978 14.9426C33.3978 15.9722 33.543 16.979 34.7514 16.979C35.9598 16.979 36.3066 15.983 36.3066 15.983L36.4632 16.9082H37.683V9.85216H36.1056L36.105 15.4352Z" fill="white"/>
<path d="M61.0332 15.4352C61.0332 15.4352 60.8652 15.89 60.3582 15.89C60.0078 15.89 59.9142 15.5546 59.9142 15.0842C59.9142 14.6144 59.9142 9.85156 59.9142 9.85156H58.3254C58.3254 9.85156 58.3254 13.913 58.3254 14.9426C58.3254 15.9722 58.4706 16.979 59.679 16.979C60.8874 16.979 61.2342 15.983 61.2342 15.983L61.3908 16.9082H62.6106V9.85216H61.0332V15.4352Z" fill="white"/>
<path d="M33.8676 7.27563H29.1798V8.53143H30.735V16.9086H32.301V8.53143H33.8676V7.27563Z" fill="white"/>
<path d="M41.6208 9.71764C40.932 9.71764 40.4262 10.155 40.1442 10.6878V6.89404H38.6226V16.908H39.9504L40.1238 16.1898C40.1238 16.1898 40.5468 16.9782 41.4978 16.9782C42.4488 16.9782 43.0752 16.2174 43.0752 14.1366C43.0752 14.1366 43.1142 12.6096 43.0752 12.57C43.0758 11.1384 42.8964 9.71764 41.6208 9.71764ZM41.487 14.1222C41.487 15.6588 41.1516 15.8676 40.7856 15.8676C40.4202 15.8676 40.1742 15.5172 40.1742 15.5172V11.4894C40.2114 11.2356 40.5618 10.833 40.8582 10.833C41.415 10.833 41.487 11.5416 41.487 12.5856C41.487 12.8166 41.487 13.2048 41.487 14.1222Z" fill="white"/>
<path d="M45.9096 9.7063C45.021 9.7063 43.7682 9.9859 43.7682 12.6715C43.7682 12.6715 43.7682 13.3873 43.7682 13.8241C43.7682 15.3907 43.95 16.9795 45.8346 16.9795C47.3394 16.9795 47.976 16.2637 47.9334 14.8261C47.9322 14.7907 46.5438 14.7193 46.5438 14.7193C46.5426 15.4291 46.485 15.9349 45.9288 15.9349C45.3654 15.9349 45.3138 15.3157 45.3138 14.7043C45.3138 14.4799 45.3138 14.2057 45.3138 13.8985H47.9736L47.976 12.9733C47.9766 11.5429 48.0402 9.7063 45.9096 9.7063ZM45.3138 12.9733C45.3138 12.6889 45.3138 12.3925 45.3138 12.0919C45.3138 11.0689 45.4848 10.7875 45.8934 10.7875C46.5648 10.7875 46.4838 11.5933 46.4838 12.0181C46.4838 12.1933 46.494 12.5563 46.506 12.9727L45.3138 12.9733Z" fill="white"/>
<path d="M73.6278 14.2789C73.665 15.4351 73.464 15.9349 73.026 15.9349C72.588 15.9349 72.4644 15.5173 72.4644 14.7193C72.4644 14.4361 72.4644 13.2127 72.4644 12.1237C72.4644 11.0347 72.681 10.7887 73.0014 10.7887C73.5162 10.7887 73.5834 11.3929 73.5834 11.9815C73.5834 12.1447 73.5834 12.5197 73.5834 12.5197L74.9484 12.4225C75.09 10.2967 74.3442 9.70752 73.0074 9.70752C72.1188 9.70752 70.866 9.98712 70.866 12.6727C70.866 12.6727 70.866 13.3885 70.866 13.8253C70.866 15.3919 71.0478 16.9807 72.9324 16.9807C74.9214 16.9807 75.0006 15.7351 75.0006 14.3623L73.6278 14.2789Z" fill="white"/>
<path d="M54.5064 10.038C54.3288 10.9392 53.886 13.23 53.7378 14.7816H53.6195C53.5901 13.422 52.3169 7.27563 52.3169 7.27563H50.0771V16.9086H51.4619V8.95923L52.9991 16.9086H54.3738L55.9109 9.00363V16.9086H57.2999V7.27563H55.0829C55.0829 7.27563 54.6834 9.13623 54.5064 10.038Z" fill="white"/>
<path d="M65.9376 12.8095C65.214 12.2425 64.8636 12.0265 64.8636 11.4145C64.8636 11.0641 65.0736 10.8325 65.502 10.8325C65.8782 10.8325 66.1062 11.0443 66.1044 12.1843L67.4316 12.1309C67.4316 12.1309 67.4394 11.5633 67.3782 11.0797C67.317 10.5967 67.0026 9.72974 65.5068 9.72974C64.5018 9.72974 63.4968 10.0825 63.4968 11.6011C63.4968 12.6979 64.0566 13.2199 65.1078 14.0479C65.9592 14.6923 66.1626 14.9719 66.1626 15.3151C66.1626 15.6583 65.9988 15.9565 65.5212 15.9565C65.0436 15.9565 64.7904 15.4645 64.8426 14.7259L63.4974 14.7331C63.4974 14.7331 63.4332 15.5983 63.612 16.0531C63.7908 16.5079 64.1892 17.0305 65.4594 17.0305C66.7296 17.0305 67.5204 16.4857 67.5204 15.1585C67.5186 13.8313 66.6606 13.3765 65.9376 12.8095Z" fill="white"/>
<path d="M69.8832 9.85205H68.3838V16.8673H69.8832V9.85205Z" fill="white"/>
<path d="M69.3353 7.07764H69.0083C68.6303 7.07764 68.3237 7.38424 68.3237 7.76224V8.32924C68.3237 8.70724 68.6303 9.01384 69.0083 9.01384H69.3353C69.7133 9.01384 70.0199 8.70724 70.0199 8.32924V7.76224C70.0193 7.38424 69.7133 7.07764 69.3353 7.07764Z" fill="white"/>
</g>
<defs>
<clipPath id="clip0_812_1221">
<rect width="75" height="24" fill="white"/>
</clipPath>
</defs>
</svg>
