<svg width="41" height="24" viewBox="0 0 41 24" fill="none" xmlns="http://www.w3.org/2000/svg">
<path d="M31.3966 0C31.719 0 31.9953 0.0923079 32.1796 0.276923C32.3638 0.415385 32.4099 0.692308 32.4099 0.969231C32.4099 1.24615 32.3178 1.47692 32.1335 1.66154C31.9493 1.84615 31.719 1.93846 31.3966 1.93846C31.0742 1.93846 30.8439 1.84615 30.6596 1.66154C30.4754 1.52308 30.3833 1.24615 30.3833 0.969231C30.3833 0.692308 30.4754 0.461539 30.6596 0.276923C30.8439 0.0923079 31.0742 0 31.3966 0Z" fill="white"/>
<path d="M11.2687 11.7231H12.2359C12.4662 11.7231 12.5583 11.6308 12.5583 11.4V5.63076C12.5583 4.84615 12.3741 4.24615 11.9596 3.83076C11.545 3.41538 10.9923 3.18461 10.2093 3.18461C9.14996 3.18461 8.04454 3.55384 6.98518 4.33845C6.61671 3.55384 5.92582 3.18461 4.91252 3.18461C3.89922 3.18461 2.88592 3.55384 1.87262 4.24615L1.7805 3.73845C1.7805 3.59999 1.73444 3.55384 1.64232 3.50768C1.59626 3.46153 1.50415 3.46153 1.41203 3.46153H0.675082C0.444787 3.46153 0.352668 3.55384 0.352668 3.78461V11.4461C0.352668 11.6769 0.444787 11.7692 0.675082 11.7692H1.64232C1.87262 11.7692 1.96474 11.6769 1.96474 11.4461V5.21538C2.74774 4.75384 3.53075 4.47692 4.35981 4.47692C4.8204 4.47692 5.14282 4.61538 5.32705 4.8923C5.51129 5.16922 5.64947 5.53845 5.64947 6.0923V11.4C5.64947 11.6308 5.74159 11.7231 5.97188 11.7231H6.93913C7.16942 11.7231 7.26154 11.6308 7.26154 11.4V5.21538C8.0906 4.70768 8.87361 4.47692 9.65661 4.47692C10.1172 4.47692 10.4396 4.61538 10.6239 4.8923C10.8081 5.16922 10.9463 5.53845 10.9463 6.0923V11.4C10.9463 11.6308 11.0384 11.7231 11.2687 11.7231Z" fill="white"/>
<path d="M26.0537 10.7077C26.5604 10.7077 26.9749 10.5692 27.2513 10.3846C27.5276 10.2 27.6658 9.87691 27.6658 9.50768C27.6658 9.23076 27.6197 9.04615 27.4355 8.86153C27.2513 8.67692 26.9749 8.53845 26.5143 8.35384L25.1325 7.84615C23.935 7.38461 23.3362 6.59999 23.3362 5.53845C23.3362 4.84615 23.6126 4.24615 24.1653 3.83076C24.718 3.41538 25.455 3.18461 26.3301 3.18461C27.021 3.18461 27.7118 3.32307 28.4027 3.55384C28.5409 3.59999 28.633 3.64615 28.6791 3.73845C28.7251 3.83076 28.7712 3.92307 28.7712 4.06153V4.52307C28.7712 4.70768 28.6791 4.79999 28.5409 4.79999C28.5124 4.79999 28.4488 4.78236 28.3608 4.758C28.3065 4.74295 28.2428 4.72531 28.1724 4.70768C27.6197 4.52307 27.021 4.43076 26.4222 4.43076C25.3628 4.43076 24.8562 4.79999 24.8562 5.4923C24.8562 5.81538 24.9483 5.99999 25.1325 6.18461C25.2707 6.36922 25.6392 6.55384 26.1458 6.73845L27.4355 7.24615C28.0803 7.47691 28.5409 7.79999 28.8173 8.12307C29.0936 8.4923 29.2318 8.90768 29.2318 9.46153C29.2318 10.2461 28.9554 10.8461 28.3567 11.3077C27.7579 11.7692 27.021 12 26.0537 12C25.1325 12 24.3035 11.8615 23.5665 11.5385C23.4283 11.4923 23.3362 11.4 23.2902 11.3538C23.2441 11.2615 23.1981 11.1692 23.1981 11.0308V10.5692C23.1981 10.3846 23.2441 10.2923 23.3823 10.2923C23.4497 10.2923 23.5418 10.317 23.6585 10.3484C23.7013 10.3598 23.7475 10.3722 23.7968 10.3846C24.5338 10.6154 25.2707 10.7077 26.0537 10.7077Z" fill="white"/>
<path d="M20.0199 9.87693V3.73847C20.0199 3.55385 20.1121 3.41539 20.3884 3.41539H21.3557C21.586 3.41539 21.6781 3.5077 21.6781 3.73847V11.3539C21.6781 11.5846 21.586 11.6769 21.3557 11.6769H20.6648C20.5266 11.6769 20.4345 11.6769 20.3884 11.6308C20.2963 11.5846 20.2502 11.5385 20.2502 11.4L20.1581 10.8462C19.1448 11.5846 18.0855 11.9539 17.0261 11.9539C16.2431 11.9539 15.6443 11.7231 15.2298 11.3077C14.8153 10.8923 14.631 10.2462 14.631 9.46155V3.73847C14.631 3.5077 14.7231 3.41539 14.9534 3.41539H15.9207C16.151 3.41539 16.2431 3.5077 16.2431 3.73847V8.95385C16.2431 9.55385 16.3352 9.96924 16.5655 10.2462C16.7958 10.5231 17.1643 10.6615 17.6709 10.6615C18.4539 10.6615 19.2369 10.3846 20.0199 9.87693Z" fill="white"/>
<path d="M20.8951 21.0462C25.8695 21.0462 31.3505 19.9846 36.371 17.8615C37.154 17.5385 37.7988 18.3692 37.0158 18.9231C32.548 22.2462 26.0537 24 20.4345 24C12.6044 24 5.51133 21.0923 0.168471 16.2462C-0.153943 15.9231 0.0302936 15.5539 0.352708 15.5539C0.444826 15.5539 0.536944 15.6 0.629062 15.6462C6.38645 19.0154 13.5256 21.0462 20.8951 21.0462Z" fill="white"/>
<path d="M36.2328 5.26152C36.6473 4.79998 37.2922 4.56921 38.2133 4.56921C38.6739 4.56921 39.1345 4.61536 39.5491 4.75383C39.6872 4.79998 39.7333 4.79998 39.8254 4.79998C39.9636 4.79998 40.0557 4.70767 40.0557 4.4769V4.01537C40.0557 3.8769 40.0097 3.73844 39.9636 3.69229C39.9175 3.64613 39.8254 3.55383 39.7333 3.50767C39.1345 3.36921 38.5358 3.23075 37.983 3.23075C36.6934 3.23075 35.7262 3.59998 34.9892 4.3846C34.2983 5.12306 33.9298 6.23075 33.9298 7.61536C33.9298 8.99998 34.2523 10.0615 34.9431 10.8C35.634 11.5384 36.6013 11.9077 37.8909 11.9077C38.5818 11.9077 39.2266 11.8154 39.7333 11.5846C39.8715 11.5384 39.9636 11.4923 40.0097 11.4C40.0557 11.3538 40.0557 11.2154 40.0557 11.0769V10.6154C40.0557 10.3846 39.9636 10.2923 39.8254 10.2923C39.7794 10.2923 39.6872 10.2923 39.5951 10.3384C39.0885 10.4769 38.5818 10.5692 38.1212 10.5692C37.2461 10.5692 36.6013 10.3384 36.1867 9.8769C35.7722 9.41537 35.588 8.6769 35.588 7.70767V7.4769C35.634 6.46152 35.8183 5.72306 36.2328 5.26152Z" fill="white"/>
<path d="M40.8387 15.3231C41.3453 15.9693 40.7005 20.1692 38.3054 22.2C37.8909 22.4769 37.5685 22.3385 37.7067 21.9231C38.2594 20.5846 39.4569 17.5385 38.9042 16.8C38.3054 16.0616 35.0813 16.4308 33.6535 16.6154C33.2389 16.6616 33.1468 16.2923 33.5613 16.0154C34.8971 15.0923 36.6473 14.7693 38.1212 14.7693C39.503 14.7693 40.6084 15.0462 40.8387 15.3231Z" fill="white"/>
<path d="M31.9032 3.41539H30.936C30.7057 3.41539 30.6136 3.5077 30.6136 3.73847V11.4C30.6136 11.6308 30.7057 11.7231 30.936 11.7231H31.9032C32.1335 11.7231 32.2257 11.6308 32.2257 11.4V3.73847C32.2257 3.55385 32.1335 3.41539 31.9032 3.41539Z" fill="white"/>
</svg>
