<svg width="41" height="24" viewBox="0 0 41 24" fill="none" xmlns="http://www.w3.org/2000/svg">
<g clip-path="url(#clip0_812_1251)">
<path d="M27.2512 10.3846C26.9748 10.5692 26.5603 10.7076 26.0537 10.7076C25.2707 10.7076 24.5337 10.6153 23.7968 10.3846C23.6125 10.3384 23.4744 10.2923 23.3822 10.2923C23.2441 10.2923 23.198 10.3846 23.198 10.5692V11.0307C23.198 11.1692 23.2441 11.2615 23.2901 11.3538C23.3362 11.4 23.4283 11.4923 23.5665 11.5384C24.3034 11.8615 25.1325 12 26.0537 12C27.0209 12 27.7579 11.7692 28.3566 11.3076C28.9554 10.8461 29.2317 10.2461 29.2317 9.46149C29.2317 8.90765 29.0936 8.49226 28.8172 8.12303C28.5409 7.79995 28.0803 7.47688 27.4354 7.24611L26.1458 6.73842C25.6391 6.5538 25.2707 6.36919 25.1325 6.18457C24.9482 5.99995 24.8561 5.81534 24.8561 5.49226C24.8561 4.79995 25.3628 4.43072 26.4221 4.43072C27.0209 4.43072 27.6197 4.52303 28.1724 4.70765C28.3566 4.7538 28.4948 4.79995 28.5409 4.79995C28.679 4.79995 28.7712 4.70765 28.7712 4.52303V4.06149C28.7712 3.92303 28.7251 3.83072 28.679 3.73842C28.633 3.64611 28.5409 3.59996 28.4027 3.5538C27.7118 3.32303 27.0209 3.18457 26.33 3.18457C25.4549 3.18457 24.7179 3.41534 24.1652 3.83072C23.6125 4.24611 23.3362 4.84611 23.3362 5.53842C23.3362 6.59996 23.9349 7.38457 25.1325 7.84611L26.5143 8.3538C26.9748 8.53842 27.2512 8.67688 27.4354 8.86149C27.6197 9.04611 27.6657 9.23072 27.6657 9.50765C27.6657 9.87688 27.5276 10.2 27.2512 10.3846Z" fill="url(#paint0_linear_812_1251)"/>
<path d="M20.0199 3.73836V9.87682C19.2369 10.3845 18.4539 10.6614 17.6709 10.6614C17.1642 10.6614 16.7958 10.523 16.5655 10.2461C16.3352 9.96913 16.2431 9.55375 16.2431 8.95375V3.73836C16.2431 3.50759 16.1509 3.41528 15.9206 3.41528H14.9534C14.7231 3.41528 14.631 3.50759 14.631 3.73836V9.46144C14.631 10.2461 14.8152 10.8922 15.2297 11.3076C15.6443 11.723 16.2431 11.9537 17.0261 11.9537C18.0854 11.9537 19.1448 11.5845 20.1581 10.8461L20.2502 11.3999C20.2502 11.5384 20.2963 11.5845 20.3884 11.6307C20.4344 11.6768 20.5266 11.6768 20.6647 11.6768H21.3556C21.5859 11.6768 21.678 11.5845 21.678 11.3537V3.73836C21.678 3.50759 21.5859 3.41528 21.3556 3.41528H20.3884C20.112 3.41528 20.0199 3.55375 20.0199 3.73836Z" fill="url(#paint1_linear_812_1251)"/>
<path d="M11.2687 11.723H12.2359C12.4662 11.723 12.5583 11.6307 12.5583 11.4V5.63072C12.5583 4.84611 12.3741 4.24611 11.9596 3.83072C11.545 3.41534 10.9923 3.18457 10.2093 3.18457C9.14996 3.18457 8.04454 3.5538 6.98518 4.33842C6.6167 3.5538 5.92582 3.18457 4.91252 3.18457C3.89921 3.18457 2.88591 3.5538 1.87261 4.24611L1.78049 3.73842C1.78049 3.59996 1.73444 3.5538 1.64232 3.50765C1.59626 3.46149 1.50414 3.46149 1.41202 3.46149H0.675075C0.444779 3.46149 0.352661 3.5538 0.352661 3.78457V11.4461C0.352661 11.6769 0.444779 11.7692 0.675075 11.7692H1.64232C1.87261 11.7692 1.96473 11.6769 1.96473 11.4461V5.21534C2.74774 4.7538 3.53074 4.47688 4.35981 4.47688C4.8204 4.47688 5.14281 4.61534 5.32705 4.89226C5.51128 5.16919 5.64946 5.53842 5.64946 6.09226V11.4C5.64946 11.6307 5.74158 11.723 5.97188 11.723H6.93912C7.16941 11.723 7.26153 11.6307 7.26153 11.4V5.72303V5.44611C7.26153 5.3538 7.26153 5.26149 7.26153 5.21534C8.0906 4.70765 8.8736 4.47688 9.65661 4.47688C10.1172 4.47688 10.4396 4.61534 10.6238 4.89226C10.8081 5.16919 10.9463 5.53842 10.9463 6.09226V11.4C10.9463 11.6307 11.0384 11.723 11.2687 11.723Z" fill="url(#paint2_linear_812_1251)"/>
<path d="M36.3709 17.8616C31.3505 19.9847 25.8695 21.0463 20.8951 21.0463C13.5256 21.0463 6.38645 19.0155 0.629062 15.6463C0.536944 15.6001 0.444826 15.554 0.352708 15.554C0.0302936 15.554 -0.153943 15.9232 0.168471 16.2463C5.51133 21.0924 12.6044 24.0001 20.4345 24.0001C26.0537 24.0001 32.548 22.2463 37.0158 18.9232C37.7988 18.3693 37.154 17.5386 36.3709 17.8616Z" fill="url(#paint3_linear_812_1251)"/>
<path d="M36.2328 5.26148C36.6473 4.79994 37.2921 4.56917 38.2133 4.56917C38.6739 4.56917 39.1345 4.61533 39.549 4.75379C39.6872 4.79994 39.7333 4.79994 39.8254 4.79994C39.9636 4.79994 40.0557 4.70764 40.0557 4.47687V4.01533C40.0557 3.87687 40.0096 3.73841 39.9636 3.69225C39.9175 3.6461 39.8254 3.55379 39.7333 3.50764C39.1345 3.36917 38.5357 3.23071 37.983 3.23071C36.6934 3.23071 35.7261 3.59994 34.9892 4.38456C34.2983 5.12302 33.9298 6.23071 33.9298 7.61533C33.9298 8.99994 34.2522 10.0615 34.9431 10.7999C35.634 11.5384 36.6012 11.9076 37.8909 11.9076C38.5818 11.9076 39.2266 11.8153 39.7333 11.5846C39.8714 11.5384 39.9636 11.4923 40.0096 11.3999C40.0557 11.3538 40.0557 11.2153 40.0557 11.0769V10.6153C40.0557 10.3846 39.9636 10.2923 39.8254 10.2923C39.7793 10.2923 39.6872 10.2923 39.5951 10.3384C39.0884 10.4769 38.5818 10.5692 38.1212 10.5692C37.2461 10.5692 36.6012 10.3384 36.1867 9.87687C35.7722 9.41533 35.5879 8.67687 35.5879 7.70764V7.47687C35.634 6.46148 35.8182 5.72302 36.2328 5.26148Z" fill="url(#paint4_linear_812_1251)"/>
<path d="M38.3055 22.2001C40.7005 20.1693 41.3454 15.9693 40.8387 15.3231C40.6084 15.0462 39.503 14.7693 38.1212 14.7693C36.6473 14.7693 34.8971 15.0924 33.5614 16.0154C33.1468 16.2924 33.239 16.6616 33.6535 16.6154C35.0813 16.4308 38.3055 16.0616 38.9042 16.8001C39.4569 17.5385 38.2594 20.5847 37.7067 21.9231C37.5685 22.3385 37.8909 22.477 38.3055 22.2001Z" fill="url(#paint5_linear_812_1251)"/>
<path d="M31.9032 3.41528H30.9359C30.7056 3.41528 30.6135 3.50759 30.6135 3.73836V11.3999C30.6135 11.6307 30.7056 11.723 30.9359 11.723H31.9032C32.1335 11.723 32.2256 11.6307 32.2256 11.3999V3.73836C32.2256 3.55375 32.1335 3.41528 31.9032 3.41528Z" fill="url(#paint6_linear_812_1251)"/>
<path d="M32.1796 0.276923C31.9954 0.0923079 31.719 0 31.3966 0C31.0742 0 30.8439 0.0923079 30.6597 0.276923C30.4754 0.461539 30.3833 0.692308 30.3833 0.969231C30.3833 1.24615 30.4754 1.52308 30.6597 1.66154C30.8439 1.84615 31.0742 1.93846 31.3966 1.93846C31.719 1.93846 31.9493 1.84615 32.1335 1.66154C32.3178 1.47692 32.4099 1.24615 32.4099 0.969231C32.4099 0.692308 32.3638 0.415385 32.1796 0.276923Z" fill="url(#paint7_linear_812_1251)"/>
</g>
<defs>
<linearGradient id="paint0_linear_812_1251" x1="8.84293" y1="24.9642" x2="35.0527" y2="-1.19176" gradientUnits="userSpaceOnUse">
<stop stop-color="#0C6CB3"/>
<stop offset="0.2911" stop-color="#1E84C4"/>
<stop offset="0.8873" stop-color="#4CC0EF"/>
<stop offset="1" stop-color="#4CC0EF"/>
</linearGradient>
<linearGradient id="paint1_linear_812_1251" x1="4.80267" y1="20.9156" x2="31.0124" y2="-5.24037" gradientUnits="userSpaceOnUse">
<stop stop-color="#0C6CB3"/>
<stop offset="0.2911" stop-color="#1E84C4"/>
<stop offset="0.8873" stop-color="#4CC0EF"/>
<stop offset="1" stop-color="#4CC0EF"/>
</linearGradient>
<linearGradient id="paint2_linear_812_1251" x1="-1.03095" y1="15.07" x2="25.1788" y2="-11.0859" gradientUnits="userSpaceOnUse">
<stop stop-color="#0C6CB3"/>
<stop offset="0.2911" stop-color="#1E84C4"/>
<stop offset="0.8873" stop-color="#4CC0EF"/>
<stop offset="1" stop-color="#4CC0EF"/>
</linearGradient>
<linearGradient id="paint3_linear_812_1251" x1="9.88279" y1="26.0063" x2="36.0925" y2="-0.149654" gradientUnits="userSpaceOnUse">
<stop stop-color="#0C6CB3"/>
<stop offset="0.2911" stop-color="#1E84C4"/>
<stop offset="0.8873" stop-color="#4CC0EF"/>
<stop offset="1" stop-color="#4CC0EF"/>
</linearGradient>
<linearGradient id="paint4_linear_812_1251" x1="14.6523" y1="30.7854" x2="40.862" y2="4.62949" gradientUnits="userSpaceOnUse">
<stop stop-color="#0C6CB3"/>
<stop offset="0.2911" stop-color="#1E84C4"/>
<stop offset="0.8873" stop-color="#4CC0EF"/>
<stop offset="1" stop-color="#4CC0EF"/>
</linearGradient>
<linearGradient id="paint5_linear_812_1251" x1="19.4554" y1="35.5985" x2="45.6651" y2="9.44252" gradientUnits="userSpaceOnUse">
<stop stop-color="#0C6CB3"/>
<stop offset="0.2911" stop-color="#1E84C4"/>
<stop offset="0.8873" stop-color="#4CC0EF"/>
<stop offset="1" stop-color="#4CC0EF"/>
</linearGradient>
<linearGradient id="paint6_linear_812_1251" x1="11.4498" y1="27.5764" x2="37.6595" y2="1.42042" gradientUnits="userSpaceOnUse">
<stop stop-color="#0C6CB3"/>
<stop offset="0.2911" stop-color="#1E84C4"/>
<stop offset="0.8873" stop-color="#4CC0EF"/>
<stop offset="1" stop-color="#4CC0EF"/>
</linearGradient>
<linearGradient id="paint7_linear_812_1251" x1="8.15524" y1="24.275" x2="34.365" y2="-1.8809" gradientUnits="userSpaceOnUse">
<stop stop-color="#0C6CB3"/>
<stop offset="0.2911" stop-color="#1E84C4"/>
<stop offset="0.8873" stop-color="#4CC0EF"/>
<stop offset="1" stop-color="#4CC0EF"/>
</linearGradient>
<clipPath id="clip0_812_1251">
<rect width="41" height="24" fill="white"/>
</clipPath>
</defs>
</svg>
