<svg xmlns="http://www.w3.org/2000/svg" xmlns:xlink="http://www.w3.org/1999/xlink" width="0" height="0" style="display:none;"><symbol viewBox="0 0 18 18" id="icon-calendar">
<path d="M6 1.5V4.5" stroke="#000000" stroke-width="1.5" stroke-linecap="round" stroke-linejoin="round"></path>
<path d="M12 1.5V4.5" stroke="#000000" stroke-width="1.5" stroke-linecap="round" stroke-linejoin="round"></path>
<path d="M14.25 3H3.75C2.92157 3 2.25 3.67157 2.25 4.5V15C2.25 15.8284 2.92157 16.5 3.75 16.5H14.25C15.0784 16.5 15.75 15.8284 15.75 15V4.5C15.75 3.67157 15.0784 3 14.25 3Z" stroke="#000000" stroke-width="1.5" stroke-linecap="round" stroke-linejoin="round"></path>
<path d="M2.25 7.5H15.75" stroke="#000000" stroke-width="1.5" stroke-linecap="round" stroke-linejoin="round"></path>
</symbol><symbol viewBox="0 0 18 18" id="icon-dashboard">
<path d="M6.75 2.25H3C2.58579 2.25 2.25 2.58579 2.25 3V6.75C2.25 7.16421 2.58579 7.5 3 7.5H6.75C7.16421 7.5 7.5 7.16421 7.5 6.75V3C7.5 2.58579 7.16421 2.25 6.75 2.25Z" stroke="#000000" stroke-width="1.5" stroke-linecap="round" stroke-linejoin="round"></path>
<path d="M15 2.25H11.25C10.8358 2.25 10.5 2.58579 10.5 3V6.75C10.5 7.16421 10.8358 7.5 11.25 7.5H15C15.4142 7.5 15.75 7.16421 15.75 6.75V3C15.75 2.58579 15.4142 2.25 15 2.25Z" stroke="#000000" stroke-width="1.5" stroke-linecap="round" stroke-linejoin="round"></path>
<path d="M15 10.5H11.25C10.8358 10.5 10.5 10.8358 10.5 11.25V15C10.5 15.4142 10.8358 15.75 11.25 15.75H15C15.4142 15.75 15.75 15.4142 15.75 15V11.25C15.75 10.8358 15.4142 10.5 15 10.5Z" stroke="#000000" stroke-width="1.5" stroke-linecap="round" stroke-linejoin="round"></path>
<path d="M6.75 10.5H3C2.58579 10.5 2.25 10.8358 2.25 11.25V15C2.25 15.4142 2.58579 15.75 3 15.75H6.75C7.16421 15.75 7.5 15.4142 7.5 15V11.25C7.5 10.8358 7.16421 10.5 6.75 10.5Z" stroke="#000000" stroke-width="1.5" stroke-linecap="round" stroke-linejoin="round"></path>
</symbol><symbol viewBox="0 0 18 18" id="icon-wallet">
<path d="M14.25 5.25V3C14.25 2.80109 14.171 2.61032 14.0303 2.46967C13.8897 2.32902 13.6989 2.25 13.5 2.25H3.75C3.35218 2.25 2.97064 2.40804 2.68934 2.68934C2.40804 2.97064 2.25 3.35218 2.25 3.75C2.25 4.14782 2.40804 4.52936 2.68934 4.81066C2.97064 5.09196 3.35218 5.25 3.75 5.25H15C15.1989 5.25 15.3897 5.32902 15.5303 5.46967C15.671 5.61032 15.75 5.80109 15.75 6V9M15.75 9H13.5C13.1022 9 12.7206 9.15804 12.4393 9.43934C12.158 9.72064 12 10.1022 12 10.5C12 10.8978 12.158 11.2794 12.4393 11.5607C12.7206 11.842 13.1022 12 13.5 12H15.75C15.9489 12 16.1397 11.921 16.2803 11.7803C16.421 11.6397 16.5 11.4489 16.5 11.25V9.75C16.5 9.55109 16.421 9.36032 16.2803 9.21967C16.1397 9.07902 15.9489 9 15.75 9Z" stroke="#000000" stroke-width="1.5" stroke-linecap="round" stroke-linejoin="round"></path>
<path d="M2.25 3.75V14.25C2.25 14.6478 2.40804 15.0294 2.68934 15.3107C2.97064 15.592 3.35218 15.75 3.75 15.75H15C15.1989 15.75 15.3897 15.671 15.5303 15.5303C15.671 15.3897 15.75 15.1989 15.75 15V12" stroke="#000000" stroke-width="1.5" stroke-linecap="round" stroke-linejoin="round"></path>
</symbol></svg>