<svg xmlns="http://www.w3.org/2000/svg" width="40" height="40" viewBox="0 0 40 40" fill="none">
<rect width="40" height="40" rx="8" fill="#5825FE"/>
<path fill-rule="evenodd" clip-rule="evenodd" d="M24.7117 10.0654C22.7951 9.97603 18.0478 9.98037 16.1294 10.0654C14.4437 10.1444 12.9567 10.5515 11.758 11.7503C9.96521 13.5431 9.98174 15.8933 10.005 19.2047C10.0078 19.5938 10.0106 19.9962 10.0106 20.4125C10.0106 20.8021 10.0085 21.1787 10.0065 21.5428L10.0065 21.5428C9.98754 24.9655 9.97465 27.2913 11.758 29.0746C13.554 30.8699 15.9302 30.8523 19.2041 30.8279L19.2047 30.8279C19.5968 30.825 20.0018 30.822 20.4202 30.822H20.4767H20.4767C24.447 30.822 25.826 30.822 27.2386 30.2751C29.1683 29.526 30.6248 27.8012 30.7672 24.7032C30.8575 22.7857 30.8523 18.0393 30.7672 16.1209C30.5953 12.4638 28.6327 10.246 24.7117 10.0654ZM27.7455 27.7491C26.536 28.9587 24.8951 28.9549 21.3507 28.9467H21.3505C21.0463 28.946 20.7281 28.9453 20.395 28.9453L19.7988 28.9456H19.7988C15.8919 28.9484 14.2545 28.9496 13.0444 27.7361C11.7855 26.4832 11.8063 24.5768 11.8365 21.81V21.81C11.8414 21.3623 11.8465 20.8922 11.8465 20.3986C11.8465 19.98 11.8428 19.5717 11.8391 19.1748C11.801 15.0242 11.7744 12.1272 16.1676 11.9022L16.2174 11.9005C17.284 11.8628 17.6413 11.8501 20.3828 11.8501L20.4219 11.8762C20.8183 11.8762 21.2073 11.8726 21.5875 11.8691C25.6446 11.8321 28.6956 11.8042 28.8948 16.2042C28.9443 17.3023 28.9556 17.6321 28.9556 20.4116C28.9555 20.6615 28.9558 20.9029 28.956 21.136C28.9596 24.9039 28.9611 26.5279 27.7455 27.7491ZM20.4215 15.0672C17.4675 15.0672 15.0761 17.4612 15.0761 20.4126C15.0761 23.3665 17.4701 25.758 20.4215 25.758C23.3754 25.758 25.7669 23.3639 25.7669 20.4126C25.7669 17.4586 23.3728 15.0672 20.4215 15.0672ZM20.4215 23.8821C18.504 23.8821 16.9519 22.3292 16.9519 20.4126C16.9519 18.4959 18.5049 16.943 20.4215 16.943C22.3381 16.943 23.891 18.4959 23.891 20.4126C23.8919 22.3292 22.339 23.8821 20.4215 23.8821ZM27.2263 14.8557C27.2263 15.5456 26.6671 16.1048 25.9772 16.1048C25.2874 16.1048 24.7281 15.5456 24.7281 14.8557C24.7281 14.1658 25.2874 13.6066 25.9772 13.6066C26.6671 13.6066 27.2263 14.1658 27.2263 14.8557Z" fill="white"/>
</svg>