<svg xmlns="http://www.w3.org/2000/svg" width="40" height="40" viewBox="0 0 40 40" fill="none">
<rect width="40" height="40" rx="8" fill="#5825FE"/>
<path d="M30.5725 26.9743C29.7372 27.9397 28.195 28.3335 25.2497 28.3335H14.5581C11.5454 28.3335 9.97703 27.9143 9.14485 26.8865C8.3335 25.8844 8.3335 24.4079 8.3335 22.3643V18.4693C8.3335 14.5103 9.29616 12.5002 14.5581 12.5002H25.2497C27.8039 12.5002 29.2192 12.8477 30.1349 13.6996C31.0739 14.5733 31.4745 15.9997 31.4745 18.4693V22.3643C31.4745 24.5194 31.4117 26.0046 30.5725 26.9743ZM23.1901 19.8791L18.3351 17.4122C18.2266 17.357 18.1079 17.3296 17.9893 17.3296C17.8551 17.3296 17.7212 17.3648 17.6026 17.4346C17.3792 17.5662 17.2429 17.8015 17.2429 18.0554V22.9733C17.2429 23.2268 17.3789 23.4619 17.6018 23.5936C17.8247 23.7252 18.1021 23.7342 18.3334 23.6174L23.1884 21.1664C23.4354 21.0417 23.5905 20.7938 23.5909 20.5233C23.5912 20.2526 23.4367 20.0043 23.1901 19.8791Z" fill="white"/>
</svg>